<svg width="40" height="40" viewBox="0 0 40 40" fill="none" xmlns="http://www.w3.org/2000/svg">
<rect width="40" height="40" rx="20" fill="#00E59E" fill-opacity="0.1"/>
<path d="M20 30C14.477 30 10 25.523 10 20C10 14.477 14.477 10 20 10C25.523 10 30 14.477 30 20C30 25.523 25.523 30 20 30ZM20 28C22.1217 28 24.1566 27.1571 25.6569 25.6569C27.1571 24.1566 28 22.1217 28 20C28 17.8783 27.1571 15.8434 25.6569 14.3431C24.1566 12.8429 22.1217 12 20 12C17.8783 12 15.8434 12.8429 14.3431 14.3431C12.8429 15.8434 12 17.8783 12 20C12 22.1217 12.8429 24.1566 14.3431 25.6569C15.8434 27.1571 17.8783 28 20 28ZM19.7101 23.2929C19.3196 23.6834 18.6864 23.6834 18.2959 23.2929L15.467 20.464C15.0765 20.0735 15.0765 19.4405 15.467 19.05V19.05C15.8575 18.6595 16.4905 18.6595 16.881 19.05L18.2958 20.4648C18.6864 20.8554 19.3196 20.8554 19.7101 20.4648L23.9521 16.222C24.3426 15.8315 24.9757 15.8315 25.3663 16.2218V16.2218C25.757 16.6123 25.7573 17.2457 25.3666 17.6364L19.7101 23.2929Z" fill="#02BA81"/>
</svg>
