<svg width="26" height="26" viewBox="0 0 26 26" fill="none" xmlns="http://www.w3.org/2000/svg">
<path d="M16.1192 13.6949V16.9709C16.1192 19.7069 15.0272 20.7989 12.2912 20.7989H9.02722C6.30322 20.7989 5.19922 19.7069 5.19922 16.9709V13.6949C5.19922 10.9709 6.29122 9.87891 9.02722 9.87891H12.3032C15.0272 9.87891 16.1192 10.9709 16.1192 13.6949Z" stroke="#65717C" stroke-width="1.5" stroke-linecap="round" stroke-linejoin="round"/>
<path d="M20.8009 9.01522V12.2912C20.8009 15.0272 19.7089 16.1192 16.9729 16.1192H16.1209V13.6952C16.1209 10.9712 15.0289 9.87922 12.2929 9.87922H9.88086V9.01522C9.88086 6.27922 10.9729 5.19922 13.7089 5.19922H16.9849C19.7089 5.19922 20.8009 6.29122 20.8009 9.01522Z" stroke="#65717C" stroke-width="1.5" stroke-linecap="round" stroke-linejoin="round"/>
<path d="M24.9996 16.6016C24.9996 21.2456 21.2436 25.0016 16.5996 25.0016L17.8596 22.9016" stroke="#65717C" stroke-width="1.5" stroke-linecap="round" stroke-linejoin="round"/>
<path d="M1 9.4C1 4.756 4.756 1 9.4 1L8.14 3.1" stroke="#65717C" stroke-width="1.5" stroke-linecap="round" stroke-linejoin="round"/>
</svg>
