<svg width="20" height="20" viewBox="0 0 20 20" fill="none" xmlns="http://www.w3.org/2000/svg">
<path d="M10 12.7096C8.50835 12.7096 7.29169 11.493 7.29169 10.0013C7.29169 8.50964 8.50835 7.29297 10 7.29297C11.4917 7.29297 12.7084 8.50964 12.7084 10.0013C12.7084 11.493 11.4917 12.7096 10 12.7096ZM10 8.54297C9.20002 8.54297 8.54169 9.2013 8.54169 10.0013C8.54169 10.8013 9.20002 11.4596 10 11.4596C10.8 11.4596 11.4584 10.8013 11.4584 10.0013C11.4584 9.2013 10.8 8.54297 10 8.54297Z" fill="#65717C"/>
<path d="M15.4167 12.7096C15.075 12.7096 14.7917 12.4263 14.7917 12.0846V7.91797C14.7917 7.5763 15.075 7.29297 15.4167 7.29297C15.7584 7.29297 16.0417 7.5763 16.0417 7.91797V12.0846C16.0417 12.4263 15.7584 12.7096 15.4167 12.7096Z" fill="#65717C"/>
<path d="M4.16665 18.9596C2.78331 18.9596 1.48331 18.2263 0.783315 17.0346C0.408315 16.4346 0.208313 15.7263 0.208313 15.0013C0.208313 12.818 1.98331 11.043 4.16665 11.043C6.34998 11.043 8.12498 12.818 8.12498 15.0013C8.12498 15.7263 7.92498 16.4346 7.54998 17.043C6.84998 18.2263 5.54998 18.9596 4.16665 18.9596ZM4.16665 12.293C2.67498 12.293 1.45831 13.5096 1.45831 15.0013C1.45831 15.493 1.59165 15.9763 1.84998 16.393C2.33331 17.2096 3.22498 17.7096 4.16665 17.7096C5.10831 17.7096 5.99998 17.2096 6.48331 16.4013C6.74165 15.9763 6.87498 15.5013 6.87498 15.0013C6.87498 13.5096 5.65831 12.293 4.16665 12.293Z" fill="#65717C"/>
<path d="M5.41646 15.6094H2.9248C2.58314 15.6094 2.2998 15.326 2.2998 14.9844C2.2998 14.6427 2.58314 14.3594 2.9248 14.3594H5.41646C5.75813 14.3594 6.04146 14.6427 6.04146 14.9844C6.04146 15.326 5.75813 15.6094 5.41646 15.6094Z" fill="#65717C"/>
<path d="M4.16669 16.8823C3.82502 16.8823 3.54169 16.5989 3.54169 16.2573V13.7656C3.54169 13.424 3.82502 13.1406 4.16669 13.1406C4.50835 13.1406 4.79169 13.424 4.79169 13.7656V16.2573C4.79169 16.6073 4.50835 16.8823 4.16669 16.8823Z" fill="#65717C"/>
<path d="M14.1667 17.2904H7.08335C6.74169 17.2904 6.45835 17.007 6.45835 16.6654C6.45835 16.3237 6.74169 16.0404 7.08335 16.0404H14.1667C16.55 16.0404 17.7084 14.882 17.7084 12.4987V7.4987C17.7084 5.11536 16.55 3.95703 14.1667 3.95703H5.83335C3.45002 3.95703 2.29169 5.11536 2.29169 7.4987V12.7487C2.29169 13.0904 2.00835 13.3737 1.66669 13.3737C1.32502 13.3737 1.04169 13.0904 1.04169 12.7487V7.4987C1.04169 4.45703 2.79169 2.70703 5.83335 2.70703H14.1667C17.2084 2.70703 18.9584 4.45703 18.9584 7.4987V12.4987C18.9584 15.5404 17.2084 17.2904 14.1667 17.2904Z" fill="#65717C"/>
</svg>
