<svg width="26" height="26" viewBox="0 0 26 26" fill="none" xmlns="http://www.w3.org/2000/svg">
<path d="M25 7V19C25 23.8 23.5 25 17.5 25H8.5C2.5 25 1 23.8 1 19V7C1 2.2 2.5 1 8.5 1H17.5C23.5 1 25 2.2 25 7Z" stroke="#65717C" stroke-width="1.5" stroke-linecap="round" stroke-linejoin="round"/>
<path d="M16 5.19922H10" stroke="#65717C" stroke-width="1.5" stroke-linecap="round" stroke-linejoin="round"/>
<path d="M12.9998 21.5208C14.2839 21.5208 15.3248 20.688 15.3248 19.6608C15.3248 18.6335 14.2839 17.8008 12.9998 17.8008C11.7157 17.8008 10.6748 18.6335 10.6748 19.6608C10.6748 20.688 11.7157 21.5208 12.9998 21.5208Z" stroke="#65717C" stroke-width="1.5" stroke-linecap="round" stroke-linejoin="round"/>
</svg>
