<svg width="20" height="20" viewBox="0 0 20 20" fill="none" xmlns="http://www.w3.org/2000/svg">
<path d="M9.99961 17.7086C9.84128 17.7086 9.68294 17.6503 9.55794 17.5253L4.49961 12.4669C4.25794 12.2253 4.25794 11.8253 4.49961 11.5836C4.74128 11.3419 5.14128 11.3419 5.38294 11.5836L9.99961 16.2003L14.6163 11.5836C14.8579 11.3419 15.2579 11.3419 15.4996 11.5836C15.7413 11.8253 15.7413 12.2253 15.4996 12.4669L10.4413 17.5253C10.3163 17.6503 10.1579 17.7086 9.99961 17.7086Z" fill="white"/>
<path d="M10 17.568C9.65833 17.568 9.375 17.2846 9.375 16.943V2.91797C9.375 2.5763 9.65833 2.29297 10 2.29297C10.3417 2.29297 10.625 2.5763 10.625 2.91797V16.943C10.625 17.2846 10.3417 17.568 10 17.568Z" fill="white"/>
</svg>
