<svg width="16" height="16" viewBox="0 0 16 16" fill="none" xmlns="http://www.w3.org/2000/svg">
<path d="M3.33333 6.66699C2.6 6.66699 2 7.26699 2 8.00033C2 8.73366 2.6 9.33366 3.33333 9.33366C4.06667 9.33366 4.66667 8.73366 4.66667 8.00033C4.66667 7.26699 4.06667 6.66699 3.33333 6.66699Z" stroke="#65717C" stroke-width="1.5"/>
<path d="M12.6668 6.66699C11.9335 6.66699 11.3335 7.26699 11.3335 8.00033C11.3335 8.73366 11.9335 9.33366 12.6668 9.33366C13.4002 9.33366 14.0002 8.73366 14.0002 8.00033C14.0002 7.26699 13.4002 6.66699 12.6668 6.66699Z" stroke="#65717C" stroke-width="1.5"/>
<path d="M7.99984 6.66699C7.2665 6.66699 6.6665 7.26699 6.6665 8.00033C6.6665 8.73366 7.2665 9.33366 7.99984 9.33366C8.73317 9.33366 9.33317 8.73366 9.33317 8.00033C9.33317 7.26699 8.73317 6.66699 7.99984 6.66699Z" stroke="#65717C" stroke-width="1.5"/>
</svg>
