<svg width="20" height="20" viewBox="0 0 20 20" fill="none" xmlns="http://www.w3.org/2000/svg">
<g id="Calendar / Calendar_Days">
<path id="Vector" d="M6.66671 3.33366H6.0002C5.06678 3.33366 4.59972 3.33366 4.2432 3.51531C3.9296 3.6751 3.67482 3.92989 3.51503 4.24349C3.33337 4.60001 3.33337 5.06707 3.33337 6.00049V6.66699M6.66671 3.33366H13.3334M6.66671 3.33366V1.66699M13.3334 3.33366H14.0002C14.9336 3.33366 15.3997 3.33366 15.7562 3.51531C16.0698 3.6751 16.3254 3.92989 16.4852 4.24349C16.6667 4.59966 16.6667 5.06615 16.6667 5.99775V6.66699M13.3334 3.33366V1.66699M3.33337 6.66699V14.0005C3.33337 14.9339 3.33337 15.4004 3.51503 15.7569C3.67482 16.0705 3.9296 16.3257 4.2432 16.4855C4.59938 16.667 5.06587 16.667 5.99747 16.667H14.0026C14.9342 16.667 15.4 16.667 15.7562 16.4855C16.0698 16.3257 16.3254 16.0705 16.4852 15.7569C16.6667 15.4007 16.6667 14.9349 16.6667 14.0033V6.66699M3.33337 6.66699H16.6667M13.3334 13.3337H13.335L13.335 13.3353L13.3334 13.3353V13.3337ZM10 13.3337H10.0017L10.0017 13.3353L10 13.3353V13.3337ZM6.66671 13.3337H6.66837L6.66833 13.3353L6.66671 13.3353V13.3337ZM13.335 10.0003V10.002L13.3334 10.002V10.0003H13.335ZM10 10.0003H10.0017L10.0017 10.002L10 10.002V10.0003ZM6.66671 10.0003H6.66837L6.66833 10.002L6.66671 10.002V10.0003Z" stroke="#0F1419" stroke-width="1.5" stroke-linecap="round" stroke-linejoin="round"/>
</g>
</svg>
