<svg width="37" height="38" viewBox="0 0 37 38" fill="none" xmlns="http://www.w3.org/2000/svg">
<circle cx="18.5" cy="19" r="18.3" fill="#F3F5FF" stroke="#5444F2" stroke-width="0.4"/>
<path d="M27 12.5H9C8.73478 12.5 8.48043 12.6054 8.29289 12.7929C8.10536 12.9804 8 13.2348 8 13.5V25.5C8 25.7652 8.10536 26.0196 8.29289 26.2071C8.48043 26.3946 8.73478 26.5 9 26.5H27C27.2652 26.5 27.5196 26.3946 27.7071 26.2071C27.8946 26.0196 28 25.7652 28 25.5V13.5C28 13.2348 27.8946 12.9804 27.7071 12.7929C27.5196 12.6054 27.2652 12.5 27 12.5ZM10 24.5V21.5C10.7956 21.5 11.5587 21.8161 12.1213 22.3787C12.6839 22.9413 13 23.7044 13 24.5H10ZM10 17.5V14.5H13C13 15.2956 12.6839 16.0587 12.1213 16.6213C11.5587 17.1839 10.7956 17.5 10 17.5ZM18 22C17.5055 22 17.0222 21.8534 16.6111 21.5787C16.2 21.304 15.8795 20.9135 15.6903 20.4567C15.5011 19.9999 15.4516 19.4972 15.548 19.0123C15.6445 18.5273 15.8826 18.0819 16.2322 17.7322C16.5819 17.3826 17.0273 17.1445 17.5123 17.048C17.9972 16.9516 18.4999 17.0011 18.9567 17.1903C19.4135 17.3795 19.804 17.7 20.0787 18.1111C20.3534 18.5222 20.5 19.0055 20.5 19.5C20.5 20.163 20.2366 20.7989 19.7678 21.2678C19.2989 21.7366 18.663 22 18 22ZM26 24.5H23C23 23.7044 23.3161 22.9413 23.8787 22.3787C24.4413 21.8161 25.2044 21.5 26 21.5V24.5ZM26 17.5C25.2044 17.5 24.4413 17.1839 23.8787 16.6213C23.3161 16.0587 23 15.2956 23 14.5H26V17.5Z" fill="#5444F2"/>
</svg>
