<svg width="10" height="10" viewBox="0 0 10 10" fill="none" xmlns="http://www.w3.org/2000/svg">
<path d="M9.57185 0.38232C9.48006 0.322746 9.37743 0.28184 9.26983 0.261939C9.16222 0.242038 9.05175 0.243532 8.94473 0.266335C8.8377 0.289139 8.73622 0.332804 8.64607 0.394839C8.55592 0.456873 8.47888 0.53606 8.41935 0.627875L3.7499 7.82538L1.47268 5.71982C1.39234 5.64553 1.29815 5.5878 1.19549 5.54991C1.09284 5.51202 0.983723 5.49473 0.874382 5.49901C0.653558 5.50766 0.445213 5.60367 0.295182 5.76593C0.14515 5.92819 0.0657218 6.14341 0.0743693 6.36423C0.0830168 6.58506 0.179032 6.7934 0.341293 6.94343L3.33129 9.70788C3.33129 9.70788 3.41713 9.78176 3.45685 9.8076C3.54865 9.86722 3.6513 9.90816 3.75893 9.92808C3.86656 9.94801 3.97707 9.94652 4.08413 9.92372C4.19118 9.90091 4.2927 9.85723 4.38287 9.79517C4.47304 9.73312 4.55009 9.6539 4.60963 9.56204L9.8174 1.53482C9.87698 1.44303 9.91788 1.3404 9.93779 1.2328C9.95769 1.12519 9.95619 1.01472 9.93339 0.907698C9.91059 0.800672 9.86692 0.699188 9.80489 0.609042C9.74285 0.518896 9.66366 0.441855 9.57185 0.38232Z" fill="#999999"/>
</svg>
