<svg width="29" height="28" viewBox="0 0 29 28" fill="none" xmlns="http://www.w3.org/2000/svg">
<g id="ClipboardText-d">
<path id="Vector" d="M17.8468 4.74023C18.406 5.48582 18.7083 6.39262 18.7083 7.32466V8.18614H10.0935V7.32466C10.0935 6.39262 10.3957 5.48582 10.955 4.74023H6.64761C6.4192 4.74023 6.20005 4.83099 6.03852 4.99251C5.87699 5.15415 5.78613 5.3732 5.78613 5.60171V23.6927C5.78613 23.9212 5.87699 24.1403 6.03852 24.3019C6.20005 24.4634 6.4192 24.5542 6.64761 24.5542H22.1542C22.3826 24.5542 22.6017 24.4634 22.7633 24.3019C22.9248 24.1403 23.0157 23.9212 23.0157 23.6927V5.60171C23.0157 5.3732 22.9248 5.15415 22.7633 4.99251C22.6017 4.83099 22.3826 4.74023 22.1542 4.74023H17.8468Z" fill="white" fill-opacity="0.1"/>
<path id="Vector_2" d="M10.955 17.6614H17.8468C18.3226 17.6614 18.7083 17.2757 18.7083 16.8C18.7083 16.3242 18.3226 15.9385 17.8468 15.9385H10.955C10.4792 15.9385 10.0935 16.3242 10.0935 16.8C10.0935 17.2757 10.4792 17.6614 10.955 17.6614Z" fill="#65717C"/>
<path id="Vector_3" d="M10.955 14.2161H17.8468C18.3226 14.2161 18.7083 13.8304 18.7083 13.3546C18.7083 12.8789 18.3226 12.4932 17.8468 12.4932H10.955C10.4792 12.4932 10.0935 12.8789 10.0935 13.3546C10.0935 13.8304 10.4792 14.2161 10.955 14.2161Z" fill="#65717C"/>
<path id="Vector_4" d="M6.64751 5.60088H10.9549C11.4307 5.60088 11.8164 5.21519 11.8164 4.73941C11.8164 4.26363 11.4307 3.87793 10.9549 3.87793H6.64751C5.93384 3.87793 5.4292 4.38257 5.4292 4.38257C4.92456 4.88721 4.92456 5.60088 4.92456 5.60088V23.6919C4.92456 24.4055 5.4292 24.9102 5.4292 24.9102C5.93384 25.4148 6.64751 25.4148 6.64751 25.4148H22.1541C22.8678 25.4148 23.3724 24.9102 23.3724 24.9102C23.877 24.4055 23.877 23.6919 23.877 23.6919V5.60088C23.877 4.88721 23.3724 4.38257 23.3724 4.38257C22.8678 3.87793 22.1541 3.87793 22.1541 3.87793H17.8467C17.3709 3.87793 16.9852 4.26363 16.9852 4.73941C16.9852 5.21519 17.3709 5.60088 17.8467 5.60088H22.1541V23.6919H6.64751V5.60088Z" fill="#65717C"/>
<path id="Vector_5" fill-rule="evenodd" clip-rule="evenodd" d="M10.0934 9.04708C9.61763 9.04708 9.23193 8.66139 9.23193 8.18561V7.32413C9.23193 7.32413 9.23193 5.18312 10.7459 3.6692C10.7459 3.6692 12.2598 2.15527 14.4008 2.15527C14.4008 2.15527 16.5418 2.15527 18.0557 3.6692C18.0557 3.6692 19.5696 5.18312 19.5696 7.32413V8.18561C19.5696 8.66139 19.1839 9.04708 18.7082 9.04708H10.0934ZM16.8374 4.88751C16.8374 4.88751 17.8467 5.89679 17.8467 7.32413H10.9549C10.9549 7.32413 10.9549 5.89679 11.9642 4.88751C11.9642 4.88751 12.9734 3.87823 14.4008 3.87823C14.4008 3.87823 15.8281 3.87823 16.8374 4.88751Z" fill="#65717C"/>
</g>
</svg>
