<svg width="213" height="162" viewBox="0 0 213 162" fill="none" xmlns="http://www.w3.org/2000/svg">
<path d="M106.5 235.717C165.318 235.717 213 188.035 213 129.217C213 70.3988 165.318 22.7172 106.5 22.7172C47.6817 22.7172 0 70.3988 0 129.217C0 188.035 47.6817 235.717 106.5 235.717Z" fill="#1F1F1F"/>
<path d="M198.139 129.217C198.15 143.516 194.809 157.619 188.386 170.394C181.963 183.169 172.635 194.262 161.151 202.781C160.383 203.356 159.601 203.916 158.813 204.461C143.456 215.135 125.202 220.857 106.499 220.857C87.797 220.857 69.5423 215.135 54.1856 204.461C53.398 203.916 52.6153 203.356 51.8475 202.781C40.3715 194.254 31.0497 183.16 24.6273 170.387C18.2048 157.613 14.8599 143.514 14.8599 129.217C14.8599 114.92 18.2048 100.821 24.6273 88.0474C31.0497 75.2739 40.3715 64.1801 51.8475 55.6529C52.6153 55.0783 53.398 54.5186 54.1856 53.9737C69.5423 43.299 87.7971 37.5776 106.499 37.5776C125.202 37.5776 143.456 43.299 158.813 53.9737C159.601 54.5186 160.383 55.0783 161.151 55.6529C172.635 64.1726 181.963 75.2649 188.386 88.0401C194.809 100.815 198.15 114.918 198.139 129.217Z" fill="white"/>
<path d="M106.5 212.931C152.734 212.931 190.214 175.451 190.214 129.217C190.214 82.9832 152.734 45.5032 106.5 45.5032C60.2662 45.5032 22.7861 82.9832 22.7861 129.217C22.7861 175.451 60.2662 212.931 106.5 212.931Z" fill="#EDEBE9"/>
<path opacity="0.2" d="M106.719 45.7372C105.45 45.7372 104.188 45.7704 102.933 45.8263C124.091 47.6855 143.752 57.518 157.931 73.3316C172.111 89.1453 179.749 109.758 179.298 130.993C178.847 152.228 170.341 172.497 155.504 187.695C140.666 202.893 120.606 211.882 99.3882 212.842C101.804 213.052 104.248 213.165 106.719 213.165C128.921 213.165 150.214 204.345 165.913 188.646C181.613 172.946 190.433 151.653 190.433 129.451C190.433 107.249 181.613 85.9559 165.913 70.2564C150.214 54.557 128.921 45.7372 106.719 45.7372Z" fill="black"/>
<path d="M106.748 39.559C106.026 39.5603 105.334 39.8477 104.823 40.3584C104.313 40.869 104.025 41.5613 104.024 42.2834V54.1718C104.024 54.8944 104.311 55.5873 104.822 56.0983C105.333 56.6092 106.026 56.8962 106.748 56.8962C107.471 56.8962 108.164 56.6092 108.675 56.0983C109.186 55.5873 109.473 54.8944 109.473 54.1718V42.2834C109.471 41.5613 109.184 40.869 108.673 40.3584C108.163 39.8477 107.471 39.5603 106.748 39.559Z" fill="white"/>
<path d="M161.152 55.6529C160.384 55.0783 159.602 54.5185 158.814 53.9737C158.341 53.9429 157.869 54.0359 157.443 54.2435C157.018 54.4511 156.653 54.7662 156.387 55.1575L149.695 64.9803C149.288 65.5774 149.135 66.3116 149.27 67.0213C149.405 67.731 149.816 68.3582 150.413 68.7648C151.01 69.1714 151.744 69.3241 152.454 69.1894C153.164 69.0547 153.791 68.6436 154.197 68.0465L160.889 58.2238C161.144 57.8511 161.302 57.4207 161.347 56.9717C161.393 56.5227 161.326 56.0693 161.152 55.6529Z" fill="white"/>
<path d="M191.557 100.442C191.422 100.111 191.224 99.8097 190.972 99.5553C190.721 99.3008 190.423 99.0984 190.093 98.9594C189.764 98.8205 189.41 98.7478 189.053 98.7456C188.695 98.7434 188.341 98.8116 188.01 98.9463L176.993 103.419C176.325 103.692 175.791 104.218 175.511 104.884C175.23 105.549 175.225 106.299 175.497 106.968C175.769 107.637 176.295 108.17 176.96 108.451C177.625 108.733 178.375 108.738 179.044 108.467L190.061 103.994C190.729 103.72 191.262 103.193 191.542 102.527C191.822 101.861 191.828 101.112 191.557 100.442Z" fill="white"/>
<path d="M63.3054 64.9803L56.6133 55.1575C56.3466 54.7662 55.9825 54.4511 55.5568 54.2435C55.1311 54.0359 54.6587 53.9429 54.1861 53.9737C53.3985 54.5185 52.6158 55.0783 51.848 55.6529C51.674 56.0693 51.6068 56.5227 51.6527 56.9717C51.6985 57.4207 51.8559 57.8511 52.1106 58.2238L58.8027 68.0465C59.2093 68.6436 59.8365 69.0547 60.5462 69.1894C61.2559 69.3241 61.9901 69.1714 62.5872 68.7648C63.1843 68.3582 63.5954 67.731 63.7301 67.0213C63.8648 66.3116 63.712 65.5774 63.3054 64.9803Z" fill="white"/>
<path d="M36.0068 103.419L24.9902 98.9464C24.3209 98.6746 23.5711 98.6798 22.9056 98.9609C22.2401 99.2419 21.7135 99.7758 21.4416 100.445C21.1696 101.114 21.1747 101.864 21.4556 102.53C21.7365 103.195 22.2703 103.722 22.9395 103.994L33.9561 108.467C34.6253 108.738 35.3748 108.733 36.0398 108.451C36.7049 108.17 37.2311 107.637 37.5029 106.968C37.7747 106.299 37.7698 105.549 37.4893 104.884C37.2087 104.219 36.6755 103.692 36.0068 103.419V103.419Z" fill="white"/>
<path d="M190.061 154.44L179.044 149.967C178.375 149.696 177.625 149.701 176.959 149.982C176.294 150.263 175.767 150.797 175.495 151.466C175.223 152.135 175.228 152.885 175.509 153.551C175.79 154.216 176.324 154.743 176.993 155.015L188.01 159.488C188.679 159.759 189.428 159.753 190.094 159.472C190.759 159.191 191.285 158.657 191.557 157.989C191.828 157.32 191.824 156.57 191.543 155.905C191.262 155.239 190.729 154.713 190.061 154.44V154.44Z" fill="white"/>
<path d="M37.5034 151.463C37.3688 151.132 37.1703 150.831 36.9192 150.576C36.6681 150.322 36.3694 150.119 36.04 149.98C35.7106 149.841 35.3571 149.769 34.9996 149.767C34.6422 149.764 34.2878 149.833 33.9567 149.967L22.9401 154.44C22.2714 154.713 21.7382 155.239 21.4577 155.905C21.1771 156.57 21.1722 157.32 21.444 157.989C21.7158 158.657 22.242 159.191 22.9071 159.472C23.5722 159.753 24.3217 159.759 24.9909 159.488L36.0074 155.015C36.6758 154.741 37.2085 154.214 37.4889 153.548C37.7693 152.882 37.7745 152.133 37.5034 151.463Z" fill="white"/>
<path d="M110.283 127.865C110.535 129.354 110.185 130.883 109.311 132.115C108.438 133.346 107.111 134.181 105.622 134.436L57.2772 142.66C56.5398 142.785 55.7848 142.764 55.0554 142.598C54.3261 142.432 53.6366 142.123 53.0265 141.69C52.4163 141.258 51.8973 140.709 51.4992 140.076C51.1011 139.442 50.8316 138.737 50.7061 137.999C50.5807 137.262 50.6018 136.507 50.7681 135.777C50.9344 135.048 51.2428 134.359 51.6755 133.748C52.1083 133.138 52.657 132.619 53.2904 132.221C53.9237 131.823 54.6293 131.554 55.3668 131.428L103.712 123.205C105.201 122.953 106.729 123.303 107.961 124.176C109.193 125.05 110.028 126.377 110.283 127.865Z" fill="#1F1F1F"/>
<path d="M161.165 181.428C160.47 182.126 159.527 182.521 158.542 182.525C157.557 182.529 156.611 182.142 155.911 181.449L103.868 129.814C103.17 129.12 102.775 128.177 102.772 127.192C102.769 126.207 103.156 125.261 103.85 124.562C104.543 123.863 105.486 123.468 106.471 123.464C107.455 123.46 108.402 123.846 109.101 124.539L161.144 176.174C161.843 176.868 162.237 177.812 162.241 178.797C162.245 179.782 161.858 180.728 161.165 181.428Z" fill="#1F1F1F"/>
<path d="M106.501 135.657C110.057 135.657 112.94 132.774 112.94 129.217C112.94 125.661 110.057 122.778 106.501 122.778C102.944 122.778 100.061 125.661 100.061 129.217C100.061 132.774 102.944 135.657 106.501 135.657Z" fill="#CCCCCC"/>
<path d="M62.1443 17.5551C52.2597 33.0954 37.178 43.4087 18.5785 50.1839C18.211 50.4592 17.7928 50.6593 17.348 50.773C16.9031 50.8867 16.4401 50.9116 15.9856 50.8463C15.5311 50.7811 15.0939 50.627 14.6989 50.3928C14.3039 50.1585 13.959 49.8488 13.6837 49.4813C3.58062 35.9917 5.8619 16.7124 19.1958 6.40483C22.4195 3.91713 26.1053 2.09457 30.0391 1.04296C33.9729 -0.00865733 38.0764 -0.268382 42.1114 0.278868C46.1464 0.826119 50.0325 2.16944 53.5441 4.23084C57.0557 6.29225 60.1229 9.03068 62.5675 12.2871L62.847 12.6602C63.1222 13.0278 63.3224 13.4459 63.4361 13.8908C63.5497 14.3357 63.5746 14.7986 63.5094 15.2532C63.4442 15.7077 63.29 16.1449 63.0558 16.5399C62.8216 16.9348 62.5119 17.2798 62.1443 17.5551Z" fill="#1F1F1F"/>
<path d="M150.432 12.2871C152.877 9.03067 155.944 6.29224 159.456 4.23084C162.967 2.16943 166.854 0.826121 170.889 0.27887C174.924 -0.26838 179.027 -0.00866276 182.961 1.04295C186.895 2.09457 190.58 3.91713 193.804 6.40482C207.138 16.7124 209.419 35.9917 199.316 49.4813C199.041 49.8488 198.696 50.1585 198.301 50.3927C197.906 50.627 197.469 50.7811 197.014 50.8463C196.56 50.9116 196.097 50.8867 195.652 50.773C195.207 50.6593 194.789 50.4591 194.421 50.1839C177.155 43.5733 162.995 32.1336 150.856 17.555C150.113 16.9991 149.622 16.1711 149.491 15.2531C149.359 14.3352 149.597 13.4025 150.153 12.6602L150.432 12.2871Z" fill="#1F1F1F"/>
<path d="M169.905 45.0078C174.556 45.0078 178.326 41.2376 178.326 36.5869C178.326 31.9361 174.556 28.166 169.905 28.166C165.254 28.166 161.484 31.9361 161.484 36.5869C161.484 41.2376 165.254 45.0078 169.905 45.0078Z" fill="#1F1F1F"/>
<path d="M106.004 25.1939C110.655 25.1939 114.425 21.4237 114.425 16.773C114.425 12.1222 110.655 8.35205 106.004 8.35205C101.354 8.35205 97.5835 12.1222 97.5835 16.773C97.5835 21.4237 101.354 25.1939 106.004 25.1939Z" fill="#1F1F1F"/>
<path d="M45.0767 44.0172C49.7274 44.0172 53.4976 40.247 53.4976 35.5963C53.4976 30.9455 49.7274 27.1754 45.0767 27.1754C40.4259 27.1754 36.6558 30.9455 36.6558 35.5963C36.6558 40.247 40.4259 44.0172 45.0767 44.0172Z" fill="#1F1F1F"/>
</svg>
