<svg width="20" height="20" viewBox="0 0 20 20" fill="none" xmlns="http://www.w3.org/2000/svg">
<g id="business and finance/document-tick">
<path id="Vector" d="M17.2583 5.24999L13.0917 1.08333H13.0875C12.928 0.932283 12.7195 0.843564 12.5 0.833328H3.33333C3.11232 0.833328 2.90036 0.921126 2.74408 1.07741C2.5878 1.23369 2.5 1.44565 2.5 1.66666V18.3333C2.5 18.5543 2.5878 18.7663 2.74408 18.9226C2.90036 19.0789 3.11232 19.1667 3.33333 19.1667H16.6667C16.8877 19.1667 17.0996 19.0789 17.2559 18.9226C17.4122 18.7663 17.5 18.5543 17.5 18.3333V5.83333C17.4925 5.6161 17.4066 5.40892 17.2583 5.24999ZM15.8333 17.5H4.16667V2.49999H11.6667V5.83333C11.6667 6.05434 11.7545 6.2663 11.9107 6.42258C12.067 6.57886 12.279 6.66666 12.5 6.66666H15.8333V17.5ZM13.0892 8.57749C13.2454 8.73377 13.3332 8.94569 13.3332 9.16666C13.3332 9.38763 13.2454 9.59955 13.0892 9.75583L9.75583 13.0892C9.60879 13.2361 9.41212 13.3228 9.20444 13.3322C8.99676 13.3416 8.79306 13.2731 8.63333 13.14L6.96667 11.7517C6.79682 11.6102 6.69011 11.4071 6.67003 11.187C6.64995 10.9668 6.71813 10.7478 6.85958 10.5779C7.00103 10.4081 7.20416 10.3014 7.42428 10.2813C7.6444 10.2612 7.86348 10.3294 8.03333 10.4708L9.11667 11.3725L11.9125 8.57749C12.0687 8.42178 12.2803 8.33434 12.5008 8.33434C12.7214 8.33434 12.933 8.42178 13.0892 8.57749Z" fill="black"/>
</g>
</svg>
