<svg width="21" height="20" viewBox="0 0 21 20" fill="none" xmlns="http://www.w3.org/2000/svg">
<circle cx="10.084" cy="10" r="10" fill="#333333"/>
<g clip-path="url(#clip0_783_8627)">
<path d="M13.949 12.3315C14.1964 12.0252 14.3322 11.6438 14.334 11.25C14.334 10.7859 14.1496 10.3408 13.8214 10.0126C13.4932 9.68437 13.0481 9.5 12.584 9.5C12.1199 9.5 11.6747 9.68437 11.3465 10.0126C11.0184 10.3408 10.834 10.7859 10.834 11.25C10.8358 11.6438 10.9715 12.0252 11.219 12.3315C10.7603 12.5669 10.3696 12.9158 10.084 13.345C9.79836 12.9158 9.40762 12.5669 8.94898 12.3315C9.19642 12.0252 9.33221 11.6438 9.33398 11.25C9.33398 10.7859 9.14961 10.3408 8.82142 10.0126C8.49323 9.68437 8.04811 9.5 7.58398 9.5C7.11986 9.5 6.67474 9.68437 6.34655 10.0126C6.01836 10.3408 5.83398 10.7859 5.83398 11.25C5.83576 11.6438 5.97154 12.0252 6.21898 12.3315C5.72727 12.5827 5.31443 12.9648 5.02595 13.4357C4.73747 13.9065 4.58453 14.4478 4.58398 15C4.58398 15.1326 4.63666 15.2598 4.73043 15.3536C4.8242 15.4473 4.95138 15.5 5.08398 15.5H15.084C15.2166 15.5 15.3438 15.4473 15.4375 15.3536C15.5313 15.2598 15.584 15.1326 15.584 15C15.5834 14.4478 15.4305 13.9065 15.142 13.4357C14.8535 12.9648 14.4407 12.5827 13.949 12.3315ZM7.58398 10.5C7.73232 10.5 7.87733 10.544 8.00066 10.6264C8.124 10.7088 8.22013 10.8259 8.27689 10.963C8.33366 11.1 8.34851 11.2508 8.31957 11.3963C8.29063 11.5418 8.2192 11.6754 8.11431 11.7803C8.00943 11.8852 7.87579 11.9567 7.7303 11.9856C7.58482 12.0145 7.43402 11.9997 7.29697 11.9429C7.15993 11.8861 7.04279 11.79 6.96038 11.6667C6.87797 11.5433 6.83398 11.3983 6.83398 11.25C6.83398 11.0511 6.913 10.8603 7.05365 10.7197C7.19431 10.579 7.38507 10.5 7.58398 10.5ZM5.64698 14.5C5.75748 14.0702 6.00777 13.6894 6.35843 13.4175C6.7091 13.1456 7.14024 12.998 7.58398 12.998C8.02772 12.998 8.45887 13.1456 8.80953 13.4175C9.1602 13.6894 9.41049 14.0702 9.52098 14.5H5.64698ZM12.584 10.5C12.7323 10.5 12.8773 10.544 13.0007 10.6264C13.124 10.7088 13.2201 10.8259 13.2769 10.963C13.3337 11.1 13.3485 11.2508 13.3196 11.3963C13.2906 11.5418 13.2192 11.6754 13.1143 11.7803C13.0094 11.8852 12.8758 11.9567 12.7303 11.9856C12.5848 12.0145 12.434 11.9997 12.297 11.9429C12.1599 11.8861 12.0428 11.79 11.9604 11.6667C11.878 11.5433 11.834 11.3983 11.834 11.25C11.834 11.0511 11.913 10.8603 12.0537 10.7197C12.1943 10.579 12.3851 10.5 12.584 10.5ZM10.6475 14.5C10.7583 14.0707 11.0087 13.6904 11.3592 13.4188C11.7098 13.1473 12.1406 13 12.584 13C13.0274 13 13.4582 13.1473 13.8087 13.4188C14.1593 13.6904 14.4096 14.0707 14.5205 14.5H10.6475ZM7.68398 8.2C7.60442 8.30609 7.57026 8.43944 7.58901 8.57071C7.60776 8.70199 7.6779 8.82044 7.78398 8.9C7.89007 8.97957 8.02342 9.01373 8.1547 8.99497C8.28597 8.97622 8.40442 8.90609 8.48398 8.8C8.67028 8.55161 8.91185 8.35 9.18956 8.21115C9.46727 8.07229 9.77349 8 10.084 8C10.3945 8 10.7007 8.07229 10.9784 8.21115C11.2561 8.35 11.4977 8.55161 11.684 8.8C11.7234 8.85253 11.7727 8.89678 11.8292 8.93024C11.8857 8.96369 11.9483 8.98569 12.0133 8.99497C12.0783 9.00426 12.1445 9.00065 12.2081 8.98436C12.2717 8.96806 12.3315 8.9394 12.384 8.9C12.4365 8.8606 12.4808 8.81125 12.5142 8.75475C12.5477 8.69825 12.5697 8.63571 12.579 8.57071C12.5882 8.50571 12.5846 8.43952 12.5683 8.37591C12.552 8.3123 12.5234 8.25253 12.484 8.2C12.2105 7.83495 11.8574 7.53707 11.4515 7.329C11.6976 7.02308 11.8325 6.64262 11.834 6.25C11.834 5.78587 11.6496 5.34075 11.3214 5.01256C10.9932 4.68437 10.5481 4.5 10.084 4.5C9.61986 4.5 9.17474 4.68437 8.84655 5.01256C8.51836 5.34075 8.33398 5.78587 8.33398 6.25C8.33561 6.64245 8.47048 7.02272 8.71648 7.3285C8.31047 7.53662 7.95733 7.8347 7.68398 8.2ZM10.084 5.5C10.2323 5.5 10.3773 5.54399 10.5007 5.6264C10.624 5.70881 10.7201 5.82594 10.7769 5.96299C10.8337 6.10003 10.8485 6.25083 10.8196 6.39632C10.7906 6.5418 10.7192 6.67544 10.6143 6.78033C10.5094 6.88522 10.3758 6.95665 10.2303 6.98559C10.0848 7.01453 9.93402 6.99968 9.79697 6.94291C9.65993 6.88614 9.54279 6.79001 9.46038 6.66668C9.37797 6.54334 9.33398 6.39834 9.33398 6.25C9.33398 6.05109 9.413 5.86032 9.55365 5.71967C9.69431 5.57902 9.88507 5.5 10.084 5.5Z" fill="white"/>
</g>
<defs>
<clipPath id="clip0_783_8627">
<rect width="12" height="12" fill="white" transform="translate(4.08398 4)"/>
</clipPath>
</defs>
</svg>
