<svg width="56" height="57" viewBox="0 0 56 57" fill="none" xmlns="http://www.w3.org/2000/svg">
<circle cx="28" cy="28.8213" r="28" fill="white"/>
<circle cx="28" cy="28.8213" r="27.5" stroke="#FF4B55" stroke-opacity="0.29"/>
<path d="M38 21.8213H33V18.8213C33 18.5561 32.8946 18.3017 32.7071 18.1142C32.5196 17.9266 32.2652 17.8213 32 17.8213H24C23.7348 17.8213 23.4804 17.9266 23.2929 18.1142C23.1054 18.3017 23 18.5561 23 18.8213V21.8213H18C17.7348 21.8213 17.4804 21.9266 17.2929 22.1142C17.1054 22.3017 17 22.5561 17 22.8213C17 23.0865 17.1054 23.3409 17.2929 23.5284C17.4804 23.7159 17.7348 23.8213 18 23.8213H19.061L20 38.8843C20.016 39.1384 20.1284 39.3769 20.3143 39.551C20.5001 39.7251 20.7453 39.8218 21 39.8213H35C35.2547 39.8218 35.4999 39.7251 35.6857 39.551C35.8716 39.3769 35.984 39.1384 36 38.8843L36.939 23.8213H38C38.2652 23.8213 38.5196 23.7159 38.7071 23.5284C38.8946 23.3409 39 23.0865 39 22.8213C39 22.5561 38.8946 22.3017 38.7071 22.1142C38.5196 21.9266 38.2652 21.8213 38 21.8213ZM25 19.8213H31V21.8213H25V19.8213ZM34.061 37.8213H21.939L21.064 23.8213H34.936L34.061 37.8213ZM25 27.8213V33.8213C25 34.0865 24.8946 34.3409 24.7071 34.5284C24.5196 34.7159 24.2652 34.8213 24 34.8213C23.7348 34.8213 23.4804 34.7159 23.2929 34.5284C23.1054 34.3409 23 34.0865 23 33.8213V27.8213C23 27.5561 23.1054 27.3017 23.2929 27.1142C23.4804 26.9266 23.7348 26.8213 24 26.8213C24.2652 26.8213 24.5196 26.9266 24.7071 27.1142C24.8946 27.3017 25 27.5561 25 27.8213ZM29 27.8213V33.8213C29 34.0865 28.8946 34.3409 28.7071 34.5284C28.5196 34.7159 28.2652 34.8213 28 34.8213C27.7348 34.8213 27.4804 34.7159 27.2929 34.5284C27.1054 34.3409 27 34.0865 27 33.8213V27.8213C27 27.5561 27.1054 27.3017 27.2929 27.1142C27.4804 26.9266 27.7348 26.8213 28 26.8213C28.2652 26.8213 28.5196 26.9266 28.7071 27.1142C28.8946 27.3017 29 27.5561 29 27.8213ZM32 26.8213C32.2652 26.8213 32.5196 26.9266 32.7071 27.1142C32.8946 27.3017 33 27.5561 33 27.8213V33.8213C33 34.0865 32.8946 34.3409 32.7071 34.5284C32.5196 34.7159 32.2652 34.8213 32 34.8213C31.7348 34.8213 31.4804 34.7159 31.2929 34.5284C31.1054 34.3409 31 34.0865 31 33.8213V27.8213C31 27.5561 31.1054 27.3017 31.2929 27.1142C31.4804 26.9266 31.7348 26.8213 32 26.8213Z" fill="#FF4B55"/>
</svg>
