<svg width="18" height="18" viewBox="0 0 18 18" fill="none" xmlns="http://www.w3.org/2000/svg">
<path d="M1 17.0001H0.25C0.25 17.4143 0.585786 17.7501 1 17.7501L1 17.0001ZM17 17.7501C17.4142 17.7501 17.75 17.4143 17.75 17.0001C17.75 16.5859 17.4142 16.2501 17 16.2501V17.7501ZM1 13.0001L0.469669 12.4698C0.329017 12.6104 0.25 12.8012 0.25 13.0001H1ZM11.8686 2.13146L11.3383 1.60113L11.3383 1.60113L11.8686 2.13146ZM14.1313 2.13146L13.601 2.66179V2.66179L14.1313 2.13146ZM15.8686 3.86872L16.3989 3.33839V3.33839L15.8686 3.86872ZM15.8686 6.13146L15.3383 5.60113V5.60113L15.8686 6.13146ZM5 17.0001L5 17.7501C5.19892 17.7501 5.38968 17.6711 5.53033 17.5304L5 17.0001ZM16.5369 4.69112L17.2502 4.45936V4.45936L16.5369 4.69112ZM16.5369 5.30908L15.8236 5.07731L16.5369 5.30908ZM12.691 1.46325L12.4592 0.749958L12.691 1.46325ZM13.3091 1.46325L13.5408 0.749958L13.3091 1.46325ZM9.53033 4.46979C9.23744 4.17689 8.76256 4.17689 8.46967 4.46979C8.17678 4.76268 8.17678 5.23755 8.46967 5.53045L9.53033 4.46979ZM12.4697 9.53045C12.7626 9.82334 13.2374 9.82334 13.5303 9.53045C13.8232 9.23755 13.8232 8.76268 13.5303 8.46979L12.4697 9.53045ZM1 17.7501H17V16.2501H1V17.7501ZM1.75 17.0001V13.0001H0.25V17.0001H1.75ZM1.53033 13.5304L12.399 2.66179L11.3383 1.60113L0.469669 12.4698L1.53033 13.5304ZM13.601 2.66179L15.3383 4.39905L16.3989 3.33839L14.6617 1.60113L13.601 2.66179ZM15.3383 5.60113L4.46967 16.4698L5.53033 17.5304L16.399 6.66179L15.3383 5.60113ZM5 16.2501L0.999996 16.2501L1 17.7501L5 17.7501L5 16.2501ZM15.3383 4.39905C15.545 4.60581 15.6678 4.72941 15.7517 4.82819C15.8299 4.92029 15.8293 4.9404 15.8236 4.92288L17.2502 4.45936C17.1703 4.21351 17.0336 4.02043 16.8952 3.85742C16.7625 3.70108 16.5882 3.52765 16.3989 3.33839L15.3383 4.39905ZM16.399 6.66179C16.5882 6.47253 16.7625 6.2991 16.8952 6.14277C17.0336 5.97974 17.1703 5.78667 17.2502 5.54084L15.8236 5.07731C15.8293 5.05981 15.8298 5.07992 15.7517 5.17201C15.6678 5.27078 15.5451 5.39438 15.3383 5.60113L16.399 6.66179ZM15.8236 4.92288C15.8399 4.9731 15.8399 5.0271 15.8236 5.07731L17.2502 5.54084C17.3644 5.18936 17.3644 4.81083 17.2502 4.45936L15.8236 4.92288ZM12.399 2.66179C12.6057 2.45504 12.7293 2.33228 12.8281 2.24844C12.9201 2.17028 12.9403 2.17086 12.9228 2.17654L12.4592 0.749958C12.2134 0.829829 12.0204 0.966511 11.8573 1.1049C11.701 1.23762 11.5276 1.41187 11.3383 1.60113L12.399 2.66179ZM14.6617 1.60113C14.4725 1.41191 14.299 1.23765 14.1428 1.10496C13.9798 0.966565 13.7867 0.829845 13.5408 0.749958L13.0773 2.17654C13.0598 2.17084 13.0798 2.17022 13.1719 2.24839C13.2707 2.33225 13.3942 2.455 13.601 2.66179L14.6617 1.60113ZM12.9228 2.17654C12.973 2.16023 13.0271 2.16023 13.0773 2.17654L13.5408 0.749958C13.1894 0.635756 12.8107 0.635756 12.4592 0.749958L12.9228 2.17654ZM8.46967 5.53045L12.4697 9.53045L13.5303 8.46979L9.53033 4.46979L8.46967 5.53045Z" fill="#8D8080"/>
</svg>
