<svg width="56" height="56" viewBox="0 0 56 56" fill="none" xmlns="http://www.w3.org/2000/svg">
<circle cx="28" cy="28" r="27.5" fill="white" stroke="#CFCBFA"/>
<rect width="28.5957" height="28.5957" transform="translate(13.1064 13.1064)" fill="white"/>
<path d="M16.6809 22.8768V31.9321C16.6809 33.2667 16.6809 33.9337 16.9406 34.4434C17.169 34.8918 17.5333 35.2567 17.9817 35.4852C18.491 35.7447 19.158 35.7447 20.4899 35.7447H34.3186C35.6506 35.7447 36.3166 35.7447 36.8258 35.4852C37.2742 35.2567 37.6397 34.8918 37.8682 34.4434C38.1277 33.9342 38.1277 33.2682 38.1277 31.9362V22.8729C38.1277 21.5409 38.1277 20.8739 37.8682 20.3647C37.6397 19.9163 37.2742 19.552 36.8258 19.3236C36.3161 19.0638 35.6497 19.0638 34.3151 19.0638H20.4938C19.1593 19.0638 18.4915 19.0638 17.9817 19.3236C17.5333 19.552 17.169 19.9163 16.9406 20.3647C16.6809 20.8744 16.6809 21.5422 16.6809 22.8768Z" fill="#F7F7FF"/>
<path d="M18.4681 20.8511L25.1495 25.7508L25.152 25.7528C25.96 26.3454 26.3642 26.6418 26.807 26.7563C27.1984 26.8576 27.6098 26.8576 28.0012 26.7563C28.4443 26.6417 28.8498 26.3444 29.6592 25.7508L36.3407 20.8511M16.6809 31.9321V22.8768C16.6809 21.5422 16.6809 20.8744 16.9406 20.3647C17.169 19.9163 17.5333 19.552 17.9817 19.3236C18.4915 19.0638 19.1593 19.0638 20.4938 19.0638H34.3151C35.6497 19.0638 36.3161 19.0638 36.8258 19.3236C37.2742 19.552 37.6397 19.9163 37.8682 20.3647C38.1277 20.8739 38.1277 21.5409 38.1277 22.8729V31.9362C38.1277 33.2682 38.1277 33.9342 37.8682 34.4434C37.6397 34.8918 37.2742 35.2567 36.8258 35.4852C36.3166 35.7447 35.6506 35.7447 34.3186 35.7447H20.4899C19.158 35.7447 18.491 35.7447 17.9817 35.4852C17.5333 35.2567 17.169 34.8918 16.9406 34.4434C16.6809 33.9337 16.6809 33.2667 16.6809 31.9321Z" stroke="#5444F2" stroke-width="1.5" stroke-linecap="round" stroke-linejoin="round"/>
</svg>
