<svg width="32" height="32" viewBox="0 0 32 32" fill="none" xmlns="http://www.w3.org/2000/svg">
<path d="M16 24V16M16 16L12 18.6667M16 16L20 18.6667M17.3333 4.00116C17.206 4 17.063 4 16.8996 4H10.9336C9.44008 4 8.69279 4 8.12236 4.29065C7.62059 4.54631 7.21294 4.95396 6.95728 5.45573C6.66663 6.02616 6.66663 6.77345 6.66663 8.26693V23.7336C6.66663 25.2271 6.66663 25.9734 6.95728 26.5438C7.21294 27.0456 7.62059 27.454 8.12236 27.7096C8.69223 28 9.43863 28 10.9292 28L21.0707 28C22.5613 28 23.3066 28 23.8765 27.7096C24.3783 27.454 24.7873 27.0456 25.0429 26.5438C25.3333 25.974 25.3333 25.2287 25.3333 23.7381V12.4342C25.3333 12.2706 25.3333 12.1275 25.332 12M17.3333 4.00116C17.7141 4.00463 17.9551 4.01846 18.1851 4.07368C18.4572 4.139 18.7171 4.24702 18.9557 4.39323C19.2247 4.55809 19.4557 4.78909 19.9166 5.25L24.0839 9.41731C24.5451 9.87852 24.7745 10.1085 24.9394 10.3776C25.0856 10.6162 25.1938 10.8763 25.2591 11.1484C25.3143 11.3783 25.3284 11.6193 25.332 12M17.3333 4.00116V7.73333C17.3333 9.22681 17.3333 9.97302 17.6239 10.5435C17.8796 11.0452 18.2873 11.454 18.789 11.7096C19.3589 12 20.1053 12 21.5958 12H25.332M25.332 12H25.3336" stroke="#5444F2" stroke-width="2" stroke-linecap="round" stroke-linejoin="round"/>
</svg>
