<svg width="24" height="25" viewBox="0 0 24 25" fill="none" xmlns="http://www.w3.org/2000/svg">
<g id="text/gallery">
<path id="Vector" d="M22 3.82129C22 3.55607 21.8946 3.30172 21.7071 3.11418C21.5196 2.92665 21.2652 2.82129 21 2.82129H3C2.73478 2.82129 2.48043 2.92665 2.29289 3.11418C2.10536 3.30172 2 3.55607 2 3.82129V21.8213C2 22.0865 2.10536 22.3409 2.29289 22.5284C2.48043 22.7159 2.73478 22.8213 3 22.8213H21C21.2652 22.8213 21.5196 22.7159 21.7071 22.5284C21.8946 22.3409 22 22.0865 22 21.8213V3.82129ZM20 20.8213H4V18.3023L7.926 15.1613L10.293 17.5283C10.4805 17.7158 10.7348 17.8211 11 17.8211C11.2652 17.8211 11.5195 17.7158 11.707 17.5283L16.074 13.1613L20 16.3023V20.8213ZM20 13.7403L16.625 11.0403C16.4328 10.8865 16.1906 10.8091 15.9449 10.8227C15.6991 10.8364 15.467 10.9402 15.293 11.1143L11 15.4073L8.707 13.1143C8.533 12.9402 8.30091 12.8364 8.05514 12.8227C7.80938 12.8091 7.56721 12.8865 7.375 13.0403L4 15.7403V4.82129H20V13.7403ZM6 8.82129C6 8.42573 6.1173 8.03905 6.33706 7.71015C6.55682 7.38125 6.86918 7.12491 7.23463 6.97353C7.60009 6.82215 8.00222 6.78255 8.39018 6.85972C8.77814 6.93689 9.13451 7.12737 9.41421 7.40708C9.69392 7.68678 9.8844 8.04315 9.96157 8.43111C10.0387 8.81907 9.99913 9.2212 9.84776 9.58666C9.69638 9.95211 9.44004 10.2645 9.11114 10.4842C8.78224 10.704 8.39556 10.8213 8 10.8213C7.46957 10.8213 6.96086 10.6106 6.58579 10.2355C6.21071 9.86043 6 9.35172 6 8.82129Z" fill="black"/>
</g>
</svg>
