<svg width="24" height="21" viewBox="0 0 24 21" fill="none" xmlns="http://www.w3.org/2000/svg">
<g id="interface/image">
<path id="Vector" d="M22 3.32129H2C1.73478 3.32129 1.48043 3.40909 1.29289 3.56537C1.10536 3.72165 1 3.93361 1 4.15462V17.488C1 17.709 1.10536 17.9209 1.29289 18.0772C1.48043 18.2335 1.73478 18.3213 2 18.3213H22C22.2652 18.3213 22.5196 18.2335 22.7071 18.0772C22.8946 17.9209 23 17.709 23 17.488V4.15462C23 3.93361 22.8946 3.72165 22.7071 3.56537C22.5196 3.40909 22.2652 3.32129 22 3.32129ZM21 16.6546H3V16.2121L8.033 12.7121L9.333 13.5263L8.293 14.3988C8.11084 14.556 8.01005 14.7665 8.01233 14.985C8.0146 15.2035 8.11977 15.4125 8.30518 15.567C8.49059 15.7215 8.7414 15.8091 9.0036 15.811C9.2658 15.8129 9.5184 15.7289 9.707 15.5771L15.892 10.423L21 16.0988V16.6546ZM21 13.3213L16.8 8.65462C16.714 8.55913 16.6044 8.48014 16.4787 8.42301C16.3529 8.36588 16.2138 8.33194 16.0709 8.32348C15.928 8.31503 15.7846 8.33226 15.6504 8.374C15.5162 8.41575 15.3943 8.48104 15.293 8.56546L10.763 12.3405L8.6 10.988C8.41999 10.8753 8.19964 10.8166 7.97461 10.8213C7.74958 10.826 7.53303 10.8938 7.36 11.0138L3 14.0421V4.98796H21V13.3213ZM5 8.32129C5 7.99165 5.1173 7.66942 5.33706 7.39534C5.55682 7.12126 5.86918 6.90764 6.23463 6.78149C6.60009 6.65534 7.00222 6.62234 7.39018 6.68665C7.77814 6.75096 8.13451 6.90969 8.41421 7.14278C8.69392 7.37586 8.8844 7.67284 8.96157 7.99614C9.03874 8.31944 8.99913 8.65455 8.84776 8.95909C8.69638 9.26364 8.44004 9.52394 8.11114 9.70707C7.78224 9.89021 7.39556 9.98796 7 9.98796C6.46957 9.98796 5.96086 9.81236 5.58579 9.4998C5.21071 9.18724 5 8.76332 5 8.32129Z" fill="#535151"/>
</g>
</svg>
