<svg width="21" height="20" viewBox="0 0 21 20" fill="none" xmlns="http://www.w3.org/2000/svg">
<circle cx="10.0273" cy="10" r="10" fill="#333333"/>
<g clip-path="url(#clip0_783_8604)">
<path d="M15.0273 6H5.02734C4.89474 6 4.76756 6.05268 4.67379 6.14645C4.58002 6.24021 4.52734 6.36739 4.52734 6.5V13.5C4.52734 13.6326 4.58002 13.7598 4.67379 13.8536C4.76756 13.9473 4.89474 14 5.02734 14H15.0273C15.16 14 15.2871 13.9473 15.3809 13.8536C15.4747 13.7598 15.5273 13.6326 15.5273 13.5V6.5C15.5273 6.36739 15.4747 6.24021 15.3809 6.14645C15.2871 6.05268 15.16 6 15.0273 6ZM14.5273 12.092C14.318 12.1663 14.1279 12.2864 13.9708 12.4434C13.8137 12.6005 13.6936 12.7907 13.6193 13H6.43534C6.36105 12.7907 6.24099 12.6005 6.08391 12.4434C5.92683 12.2864 5.73669 12.1663 5.52734 12.092V7.908C5.73669 7.83371 5.92683 7.71365 6.08391 7.55657C6.24099 7.39949 6.36105 7.20935 6.43534 7H13.6193C13.6936 7.20935 13.8137 7.39949 13.9708 7.55657C14.1279 7.71365 14.318 7.83371 14.5273 7.908V12.092ZM10.0273 8C9.63178 8 9.2451 8.1173 8.9162 8.33706C8.58731 8.55682 8.33096 8.86918 8.17958 9.23463C8.02821 9.60009 7.9886 10.0022 8.06577 10.3902C8.14294 10.7781 8.33343 11.1345 8.61313 11.4142C8.89284 11.6939 9.2492 11.8844 9.63716 11.9616C10.0251 12.0387 10.4273 11.9991 10.7927 11.8478C11.1582 11.6964 11.4705 11.44 11.6903 11.1111C11.91 10.7822 12.0273 10.3956 12.0273 10C12.0273 9.46957 11.8166 8.96086 11.4416 8.58579C11.0665 8.21071 10.5578 8 10.0273 8ZM10.0273 11C9.82956 11 9.63622 10.9414 9.47177 10.8315C9.30732 10.7216 9.17915 10.5654 9.10346 10.3827C9.02778 10.2 9.00797 9.99889 9.04656 9.80491C9.08514 9.61093 9.18038 9.43275 9.32024 9.29289C9.46009 9.15304 9.63827 9.0578 9.83225 9.01921C10.0262 8.98063 10.2273 9.00043 10.41 9.07612C10.5928 9.15181 10.7489 9.27998 10.8588 9.44443C10.9687 9.60888 11.0273 9.80222 11.0273 10C11.0273 10.2652 10.922 10.5196 10.7345 10.7071C10.5469 10.8946 10.2926 11 10.0273 11ZM7.52734 10C7.52734 10.1326 7.47467 10.2598 7.3809 10.3536C7.28713 10.4473 7.15995 10.5 7.02734 10.5H6.52734C6.39474 10.5 6.26756 10.4473 6.17379 10.3536C6.08002 10.2598 6.02734 10.1326 6.02734 10C6.02734 9.86739 6.08002 9.74021 6.17379 9.64645C6.26756 9.55268 6.39474 9.5 6.52734 9.5H7.02734C7.15995 9.5 7.28713 9.55268 7.3809 9.64645C7.47467 9.74021 7.52734 9.86739 7.52734 10ZM14.0273 10C14.0273 10.1326 13.9747 10.2598 13.8809 10.3536C13.7871 10.4473 13.66 10.5 13.5273 10.5H13.0273C12.8947 10.5 12.7676 10.4473 12.6738 10.3536C12.58 10.2598 12.5273 10.1326 12.5273 10C12.5273 9.86739 12.58 9.74021 12.6738 9.64645C12.7676 9.55268 12.8947 9.5 13.0273 9.5H13.5273C13.66 9.5 13.7871 9.55268 13.8809 9.64645C13.9747 9.74021 14.0273 9.86739 14.0273 10Z" fill="white"/>
</g>
<defs>
<clipPath id="clip0_783_8604">
<rect width="12" height="12" fill="white" transform="translate(4.02734 4)"/>
</clipPath>
</defs>
</svg>
