<svg width="20" height="21" viewBox="0 0 20 21" fill="none" xmlns="http://www.w3.org/2000/svg">
<g id="interface/layout-2">
<path id="Vector" d="M18.3327 18.3216V3.32161C18.3327 3.1006 18.2449 2.88864 18.0886 2.73236C17.9323 2.57608 17.7204 2.48828 17.4993 2.48828H2.49935C2.27834 2.48828 2.06637 2.57608 1.91009 2.73236C1.75381 2.88864 1.66602 3.1006 1.66602 3.32161V18.3216C1.66602 18.5426 1.75381 18.7546 1.91009 18.9109C2.06637 19.0672 2.27834 19.1549 2.49935 19.1549H17.4993C17.7204 19.1549 17.9323 19.0672 18.0886 18.9109C18.2449 18.7546 18.3327 18.5426 18.3327 18.3216ZM9.16602 17.4883H3.33268V11.6549H9.16602V17.4883ZM9.16602 9.98828H3.33268V4.15495H9.16602V9.98828ZM16.666 17.4883H10.8327V11.6549H16.666V17.4883ZM16.666 9.98828H10.8327V4.15495H16.666V9.98828Z" fill="#535151"/>
</g>
</svg>
