<svg width="25" height="25" viewBox="0 0 25 25" fill="none" xmlns="http://www.w3.org/2000/svg">
<path d="M12.5 15.5L15.5 12.5M15.5 12.5L12.5 9.5M15.5 12.5H4.5M9.5 7.74859V7.7002C9.5 6.58009 9.5 6.01962 9.71799 5.5918C9.90973 5.21547 10.2155 4.90973 10.5918 4.71799C11.0196 4.5 11.5801 4.5 12.7002 4.5H17.3002C18.4203 4.5 18.9796 4.5 19.4074 4.71799C19.7837 4.90973 20.0905 5.21547 20.2822 5.5918C20.5 6.0192 20.5 6.57899 20.5 7.69691V17.3036C20.5 18.4215 20.5 18.9805 20.2822 19.4079C20.0905 19.7842 19.7837 20.0905 19.4074 20.2822C18.98 20.5 18.421 20.5 17.3031 20.5H12.6969C11.579 20.5 11.0192 20.5 10.5918 20.2822C10.2155 20.0905 9.90973 19.7839 9.71799 19.4076C9.5 18.9798 9.5 18.4201 9.5 17.3V17.25" stroke="#FF4B55" stroke-width="1.5" stroke-linecap="round" stroke-linejoin="round"/>
</svg>
