<svg width="121" height="44" viewBox="0 0 121 44" fill="none" xmlns="http://www.w3.org/2000/svg">
<path d="M0 11.5074H7.14375L14.6912 34.7799L22.4187 11.5074H29.3825L18.735 42.9562H10.6925L0 11.5074Z" fill="white"/>
<path d="M28.0801 31.4549C28.0801 24.2661 32.7976 19.5936 39.9413 19.5936C47.0851 19.5936 51.5326 23.9061 51.6226 30.6911C51.6226 31.3649 51.5776 32.1286 51.4426 32.8474H34.6851V33.1624C34.8201 36.4424 36.9313 38.4186 40.1213 38.4186C42.6826 38.4186 44.4788 37.2949 45.0188 35.1386H51.2638C50.5451 39.6311 46.5463 43.2261 40.3913 43.2261C32.7088 43.2261 28.0813 38.5986 28.0813 31.4549H28.0801ZM45.2426 28.7149C44.7938 25.8849 42.8613 24.3124 39.9863 24.3124C37.1113 24.3124 35.1788 25.9749 34.8201 28.7149H45.2438H45.2426Z" fill="white"/>
<path d="M77.5888 30.1524V42.9561H71.2538V30.7811C71.2538 26.8724 69.7713 24.8061 66.5813 24.8061C63.3913 24.8061 61.4151 27.1424 61.4151 31.1411V42.9574H55.0801V19.8636H60.6063L61.1901 22.7386C62.6726 20.9411 64.7838 19.5936 68.3338 19.5936C73.3213 19.5936 77.5888 22.2449 77.5888 30.1511V30.1524Z" fill="white"/>
<path d="M100.461 2.72364L97.5929 15.0338L102.279 27.7898L113.784 34.7912L118.431 32.8617C120.669 31.9326 120.908 28.8494 118.841 27.5844L107.121 20.4114C105.947 19.6925 105.367 18.3007 105.68 16.9584L108.61 4.42597C109.161 2.07122 106.822 0.0801421 104.593 1.00561L100.461 2.72364Z" fill="white"/>
<path d="M74.4073 15.4953L85.3482 22.2587C86.5209 22.9836 87.0958 24.3839 86.7716 25.7262L83.5464 39.0996C82.9763 41.4591 85.3205 43.4696 87.5586 42.5405L91.5828 40.8695L94.7163 27.7898L90.0305 15.0338L79.5053 8.28369L74.8291 10.2252C72.5959 11.1519 72.3512 14.2243 74.4073 15.4953Z" fill="white"/>
</svg>
