<svg width="20" height="20" viewBox="0 0 20 20" fill="none" xmlns="http://www.w3.org/2000/svg">
<g id="System / Window_Code_Block">
<path id="Vector" d="M2.5 4.99967H2.51599M2.51599 4.99967H17.4841M2.51599 4.99967C2.5 5.26165 2.5 5.5846 2.5 5.99984V13.9998C2.5 14.9333 2.5 15.3993 2.68166 15.7558C2.84144 16.0694 3.09623 16.3251 3.40983 16.4849C3.76601 16.6663 4.2325 16.6663 5.16412 16.6663L14.8359 16.6663C15.7675 16.6663 16.2333 16.6663 16.5895 16.4849C16.9031 16.3251 17.1587 16.0694 17.3185 15.7558C17.5 15.3997 17.5 14.9338 17.5 14.0022L17.5 5.9971C17.5 5.58318 17.5 5.26108 17.4841 4.99967M2.51599 4.99967C2.53595 4.67274 2.58081 4.44076 2.68166 4.24284C2.84144 3.92924 3.09623 3.67445 3.40983 3.51466C3.76635 3.33301 4.23341 3.33301 5.16683 3.33301H14.8335C15.7669 3.33301 16.233 3.33301 16.5895 3.51466C16.9031 3.67445 17.1587 3.92924 17.3185 4.24284C17.4194 4.44076 17.4642 4.67274 17.4841 4.99967M17.4841 4.99967H17.5M11.6667 9.16634L13.3333 10.833L11.6667 12.4997M8.33333 12.4997L6.66667 10.833L8.33333 9.16634" stroke="#65717C" stroke-width="1.3" stroke-linecap="round" stroke-linejoin="round"/>
</g>
</svg>
