<svg width="20" height="20" viewBox="0 0 20 20" fill="none" xmlns="http://www.w3.org/2000/svg">
<circle cx="10" cy="10" r="10" fill="#333333"/>
<path d="M15 8.24982H13.7675L11.9175 5.47232C11.8439 5.36199 11.7295 5.28542 11.5994 5.25944C11.4694 5.23347 11.3343 5.26022 11.224 5.33382C11.1137 5.40742 11.0371 5.52183 11.0111 5.65189C10.9851 5.78194 11.0119 5.91699 11.0855 6.02732L12.566 8.24982H7.434L8.916 6.02732C8.9896 5.91699 9.01635 5.78194 8.99038 5.65189C8.9644 5.52183 8.88783 5.40742 8.7775 5.33382C8.66717 5.26022 8.53212 5.23347 8.40207 5.25944C8.27201 5.28542 8.1576 5.36199 8.084 5.47232L6.2325 8.24982H5C4.86739 8.24982 4.74021 8.3025 4.64645 8.39627C4.55268 8.49003 4.5 8.61721 4.5 8.74982C4.5 8.88243 4.55268 9.00961 4.64645 9.10337C4.74021 9.19714 4.86739 9.24982 5 9.24982H5.5V13.2498C5.5 13.6476 5.65804 14.0292 5.93934 14.3105C6.22064 14.5918 6.60217 14.7498 7 14.7498H13C13.3978 14.7498 13.7794 14.5918 14.0607 14.3105C14.342 14.0292 14.5 13.6476 14.5 13.2498V9.24982H15C15.1326 9.24982 15.2598 9.19714 15.3536 9.10337C15.4473 9.00961 15.5 8.88243 15.5 8.74982C15.5 8.61721 15.4473 8.49003 15.3536 8.39627C15.2598 8.3025 15.1326 8.24982 15 8.24982ZM13.5 13.2498C13.5 13.3824 13.4473 13.5096 13.3536 13.6034C13.2598 13.6971 13.1326 13.7498 13 13.7498H7C6.86739 13.7498 6.74021 13.6971 6.64645 13.6034C6.55268 13.5096 6.5 13.3824 6.5 13.2498V9.24982H13.5V13.2498ZM7.5 12.4998V10.4998C7.5 10.3672 7.55268 10.24 7.64645 10.1463C7.74021 10.0525 7.86739 9.99982 8 9.99982C8.13261 9.99982 8.25978 10.0525 8.35355 10.1463C8.44732 10.24 8.5 10.3672 8.5 10.4998V12.4998C8.5 12.6324 8.44732 12.7596 8.35355 12.8534C8.25978 12.9471 8.13261 12.9998 8 12.9998C7.86739 12.9998 7.74021 12.9471 7.64645 12.8534C7.55268 12.7596 7.5 12.6324 7.5 12.4998ZM9.5 12.4998V10.4998C9.5 10.3672 9.55268 10.24 9.64645 10.1463C9.74021 10.0525 9.86739 9.99982 10 9.99982C10.1326 9.99982 10.2598 10.0525 10.3536 10.1463C10.4473 10.24 10.5 10.3672 10.5 10.4998V12.4998C10.5 12.6324 10.4473 12.7596 10.3536 12.8534C10.2598 12.9471 10.1326 12.9998 10 12.9998C9.86739 12.9998 9.74021 12.9471 9.64645 12.8534C9.55268 12.7596 9.5 12.6324 9.5 12.4998ZM11.5 12.4998V10.4998C11.5 10.3672 11.5527 10.24 11.6464 10.1463C11.7402 10.0525 11.8674 9.99982 12 9.99982C12.1326 9.99982 12.2598 10.0525 12.3536 10.1463C12.4473 10.24 12.5 10.3672 12.5 10.4998V12.4998C12.5 12.6324 12.4473 12.7596 12.3536 12.8534C12.2598 12.9471 12.1326 12.9998 12 12.9998C11.8674 12.9998 11.7402 12.9471 11.6464 12.8534C11.5527 12.7596 11.5 12.6324 11.5 12.4998Z" fill="white"/>
</svg>
