<svg width="20" height="20" viewBox="0 0 20 20" fill="none" xmlns="http://www.w3.org/2000/svg">
<g id="development/website-dashboard">
<path id="Vector" d="M2.49935 18.3334H17.4993C17.7204 18.3334 17.9323 18.2456 18.0886 18.0893C18.2449 17.9331 18.3327 17.7211 18.3327 17.5001V2.50008C18.3327 2.27907 18.2449 2.06711 18.0886 1.91083C17.9323 1.75455 17.7204 1.66675 17.4993 1.66675H2.49935C2.27834 1.66675 2.06637 1.75455 1.91009 1.91083C1.75381 2.06711 1.66602 2.27907 1.66602 2.50008V17.5001C1.66602 17.7211 1.75381 17.9331 1.91009 18.0893C2.06637 18.2456 2.27834 18.3334 2.49935 18.3334ZM3.33268 8.33342H4.99935V16.6667H3.33268V8.33342ZM16.666 16.6667H6.66602V8.33342H16.666V16.6667ZM3.33268 3.33341H16.666V6.66675H3.33268V3.33341Z" fill="white"/>
</g>
</svg>
