<svg width="20" height="21" viewBox="0 0 20 21" fill="none" xmlns="http://www.w3.org/2000/svg">
<g id="design/cube">
<path id="Vector" d="M2.16102 16.5827L9.66102 19.9161H9.66602C9.7708 19.9633 9.88442 19.9877 9.99935 19.9877C10.1143 19.9877 10.2279 19.9633 10.3327 19.9161H10.3393L17.8393 16.5827C17.9864 16.517 18.1112 16.4101 18.1988 16.2749C18.2863 16.1398 18.3328 15.9821 18.3327 15.8211V5.82107C18.3287 5.66074 18.2804 5.50466 18.193 5.37019C18.1056 5.23572 17.9826 5.12813 17.8377 5.0594L10.3377 1.72607C10.2312 1.67875 10.1159 1.6543 9.99935 1.6543C9.88279 1.6543 9.76753 1.67875 9.66102 1.72607L2.16102 5.0594C2.01617 5.12821 1.89323 5.23581 1.80585 5.37027C1.71847 5.50472 1.67007 5.66077 1.66602 5.82107V15.8211C1.666 15.9823 1.71275 16.1401 1.80061 16.2753C1.88847 16.4105 2.01367 16.5173 2.16102 16.5827ZM3.33268 7.10357L9.16602 9.69607V17.8719L3.33268 15.2794V7.10357ZM16.666 15.2794L10.8327 17.8719V9.69607L16.666 7.10357V15.2794ZM9.99935 3.3994L15.4477 5.82107L9.99935 8.24274L4.55102 5.82107L9.99935 3.3994Z" fill="white"/>
</g>
</svg>
