<svg width="21" height="20" viewBox="0 0 21 20" fill="none" xmlns="http://www.w3.org/2000/svg">
<circle cx="10.0566" cy="10" r="10" fill="#333333"/>
<path d="M4.42274 13.9325C4.58141 14.0736 4.48632 13.9966 9.87166 15.8038C9.99131 15.8437 10.1207 15.8437 10.2403 15.8038C15.306 14.0836 15.4717 14.1261 15.6898 13.9325C15.7577 13.8691 15.8115 13.7922 15.8479 13.7067C15.8741 13.641 15.8882 13.571 15.8893 13.5002V6.50022C15.8882 6.42945 15.8741 6.35947 15.8479 6.29372C15.8115 6.20828 15.7577 6.13139 15.6898 6.06797C15.4781 5.88014 15.3591 5.92797 10.2403 4.19664C10.1207 4.15678 9.99131 4.15678 9.87166 4.19664C8.24766 4.74089 4.68057 5.91689 4.53882 5.98981C4.49678 6.01081 4.45758 6.03708 4.42216 6.06797C4.35429 6.13149 4.30027 6.20835 4.26349 6.29372C4.23747 6.35951 4.22363 6.42948 4.22266 6.50022V13.5002C4.22382 13.571 4.23785 13.641 4.26407 13.7067C4.30072 13.7922 4.35475 13.8691 4.42274 13.9325ZM14.7227 12.6906L12.5737 11.9748C12.4267 11.9259 12.2663 11.9374 12.1278 12.0068C11.9893 12.0761 11.884 12.1977 11.8352 12.3446C11.7863 12.4916 11.7978 12.652 11.8671 12.7905C11.9365 12.929 12.058 13.0343 12.205 13.0831L13.4615 13.5002L10.6393 14.4406V8.67081L14.7227 7.30989V12.6906ZM10.056 5.36506L13.4615 6.50022L10.056 7.63539L6.65049 6.50022L10.056 5.36506ZM5.38932 7.30989L9.47266 8.67081V14.4406L6.65049 13.5002L7.90699 13.0814C8.05396 13.0325 8.1755 12.9272 8.24485 12.7887C8.31421 12.6502 8.32571 12.4899 8.27682 12.3429C8.22793 12.1959 8.12266 12.0744 7.98417 12.005C7.84567 11.9357 7.6853 11.9242 7.53832 11.9731L5.38932 12.6906V7.30989Z" fill="white"/>
</svg>
