<svg width="20" height="21" viewBox="0 0 20 21" fill="none" xmlns="http://www.w3.org/2000/svg">
<g id="interface/gift">
<path id="Vector" d="M18.334 6.65461H17.4123C17.4751 6.38139 17.5047 6.1016 17.5006 5.82128C17.536 5.37454 17.4741 4.92544 17.3191 4.50496C17.1641 4.08449 16.9197 3.70263 16.6028 3.38575C16.286 3.06887 15.9041 2.8245 15.4836 2.6695C15.0632 2.5145 14.6141 2.45256 14.1673 2.48795C12.364 2.48795 10.8598 4.38045 10.0007 5.76128C9.14148 4.38045 7.63732 2.48795 5.83398 2.48795C5.38725 2.45256 4.93815 2.5145 4.51767 2.6695C4.09719 2.8245 3.71534 3.06887 3.39846 3.38575C3.08157 3.70263 2.8372 4.08449 2.6822 4.50496C2.5272 4.92544 2.46526 5.37454 2.50065 5.82128C2.49655 6.1016 2.52621 6.38139 2.58898 6.65461H1.66732C1.4463 6.65461 1.23434 6.74241 1.07806 6.89869C0.921782 7.05497 0.833984 7.26693 0.833984 7.48795V11.6546C0.833984 11.8756 0.921782 12.0876 1.07806 12.2439C1.23434 12.4002 1.4463 12.4879 1.66732 12.4879H2.50065V18.3213C2.50065 18.5423 2.58845 18.7543 2.74473 18.9105C2.90101 19.0668 3.11297 19.1546 3.33398 19.1546H16.6673C16.8883 19.1546 17.1003 19.0668 17.2566 18.9105C17.4129 18.7543 17.5006 18.5423 17.5006 18.3213V12.4879H18.334C18.555 12.4879 18.767 12.4002 18.9232 12.2439C19.0795 12.0876 19.1673 11.8756 19.1673 11.6546V7.48795C19.1673 7.26693 19.0795 7.05497 18.9232 6.89869C18.767 6.74241 18.555 6.65461 18.334 6.65461ZM5.83398 4.15461C6.76148 4.15461 7.84982 5.47378 8.59065 6.65461H6.29732C4.16732 6.65461 4.16732 6.32128 4.16732 5.82128C4.16732 4.32795 5.11898 4.15461 5.83398 4.15461ZM9.16732 17.4879H4.16732V12.4879H9.16732V17.4879ZM9.16732 10.8213H2.50065V8.32128H9.16732V10.8213ZM14.1673 4.15461C14.8823 4.15461 15.834 4.32795 15.834 5.82128C15.834 6.32128 15.834 6.65461 13.704 6.65461H11.4107C12.1515 5.47378 13.2398 4.15461 14.1673 4.15461ZM15.834 17.4879H10.834V12.4879H15.834V17.4879ZM17.5006 10.8213H10.834V8.32128H17.5006V10.8213Z" fill="#535151"/>
</g>
</svg>
