<svg width="17" height="17" viewBox="0 0 17 17" fill="none" xmlns="http://www.w3.org/2000/svg">
<g id="Interface / Radio_Fill">
<g id="Vector">
<path d="M8.02669 3.17969C5.08117 3.17969 2.69336 5.5675 2.69336 8.51302C2.69336 11.4585 5.08117 13.8464 8.02669 13.8464C10.9722 13.8464 13.36 11.4585 13.36 8.51302C13.36 5.5675 10.9722 3.17969 8.02669 3.17969Z" fill="#DBD9F9"/>
<path d="M8.02669 6.51302C6.92212 6.51302 6.02669 7.40845 6.02669 8.51302C6.02669 9.61759 6.92212 10.513 8.02669 10.513C9.13126 10.513 10.0267 9.61759 10.0267 8.51302C10.0267 7.40845 9.13126 6.51302 8.02669 6.51302Z" fill="#DBD9F9"/>
<path d="M8.02669 3.17969C5.08117 3.17969 2.69336 5.5675 2.69336 8.51302C2.69336 11.4585 5.08117 13.8464 8.02669 13.8464C10.9722 13.8464 13.36 11.4585 13.36 8.51302C13.36 5.5675 10.9722 3.17969 8.02669 3.17969Z" stroke="#5444F2" stroke-linecap="round" stroke-linejoin="round"/>
<path d="M8.02669 6.51302C6.92212 6.51302 6.02669 7.40845 6.02669 8.51302C6.02669 9.61759 6.92212 10.513 8.02669 10.513C9.13126 10.513 10.0267 9.61759 10.0267 8.51302C10.0267 7.40845 9.13126 6.51302 8.02669 6.51302Z" stroke="#5444F2" stroke-linecap="round" stroke-linejoin="round"/>
</g>
</g>
</svg>
