<svg width="20" height="21" viewBox="0 0 20 21" fill="none" xmlns="http://www.w3.org/2000/svg">
<g id="users/groups">
<path id="Vector" d="M16.4423 14.7071C16.8547 14.1966 17.081 13.5609 17.084 12.9046C17.084 12.1311 16.7767 11.3892 16.2297 10.8422C15.6827 10.2953 14.9409 9.98796 14.1673 9.98796C13.3938 9.98796 12.6519 10.2953 12.1049 10.8422C11.5579 11.3892 11.2507 12.1311 11.2507 12.9046C11.2536 13.5609 11.4799 14.1966 11.8923 14.7071C11.1279 15.0995 10.4767 15.681 10.0007 16.3963C9.5246 15.681 8.87338 15.0995 8.10898 14.7071C8.52138 14.1966 8.74769 13.5609 8.75065 12.9046C8.75065 12.1311 8.44336 11.3892 7.89638 10.8422C7.3494 10.2953 6.60753 9.98796 5.83398 9.98796C5.06044 9.98796 4.31857 10.2953 3.77159 10.8422C3.22461 11.3892 2.91732 12.1311 2.91732 12.9046C2.92028 13.5609 3.14658 14.1966 3.55898 14.7071C2.73946 15.1259 2.0514 15.7627 1.5706 16.5474C1.08979 17.3321 0.834897 18.2343 0.833984 19.1546C0.833984 19.3756 0.921782 19.5876 1.07806 19.7439C1.23434 19.9002 1.4463 19.988 1.66732 19.988H18.334C18.555 19.988 18.767 19.9002 18.9232 19.7439C19.0795 19.5876 19.1673 19.3756 19.1673 19.1546C19.1664 18.2343 18.9115 17.3321 18.4307 16.5474C17.9499 15.7627 17.2618 15.1259 16.4423 14.7071ZM5.83398 11.6546C6.08121 11.6546 6.32289 11.7279 6.52845 11.8653C6.73401 12.0026 6.89422 12.1979 6.98883 12.4263C7.08344 12.6547 7.1082 12.906 7.05997 13.1485C7.01173 13.391 6.89268 13.6137 6.71787 13.7885C6.54305 13.9633 6.32032 14.0824 6.07785 14.1306C5.83537 14.1788 5.58404 14.1541 5.35563 14.0595C5.12722 13.9649 4.932 13.8047 4.79465 13.5991C4.6573 13.3935 4.58398 13.1519 4.58398 12.9046C4.58398 12.5731 4.71568 12.2552 4.9501 12.0207C5.18452 11.7863 5.50246 11.6546 5.83398 11.6546ZM2.60565 18.3213C2.78981 17.605 3.20695 16.9703 3.7914 16.5172C4.37585 16.064 5.09442 15.818 5.83398 15.818C6.57355 15.818 7.29212 16.064 7.87657 16.5172C8.46102 16.9703 8.87815 17.605 9.06232 18.3213H2.60565ZM14.1673 11.6546C14.4145 11.6546 14.6562 11.7279 14.8618 11.8653C15.0673 12.0026 15.2276 12.1979 15.3222 12.4263C15.4168 12.6547 15.4415 12.906 15.3933 13.1485C15.3451 13.391 15.226 13.6137 15.0512 13.7885C14.8764 13.9633 14.6537 14.0824 14.4112 14.1306C14.1687 14.1788 13.9174 14.1541 13.689 14.0595C13.4606 13.9649 13.2653 13.8047 13.128 13.5991C12.9906 13.3935 12.9173 13.1519 12.9173 12.9046C12.9173 12.5731 13.049 12.2552 13.2834 12.0207C13.5179 11.7863 13.8358 11.6546 14.1673 11.6546ZM10.9398 18.3213C11.1246 17.6058 11.5418 16.9719 12.1261 16.5194C12.7103 16.0668 13.4283 15.8212 14.1673 15.8212C14.9063 15.8212 15.6244 16.0668 16.2086 16.5194C16.7928 16.9719 17.2101 17.6058 17.3948 18.3213H10.9398ZM6.00065 7.8213C5.86804 7.99811 5.8111 8.22036 5.84236 8.43915C5.87362 8.65794 5.99051 8.85536 6.16732 8.98797C6.34413 9.12057 6.56638 9.17751 6.78517 9.14626C7.00396 9.115 7.20138 8.99811 7.33398 8.8213C7.64447 8.40731 8.04709 8.0713 8.50994 7.83987C8.97279 7.60845 9.48317 7.48797 10.0007 7.48797C10.5181 7.48797 11.0285 7.60845 11.4914 7.83987C11.9542 8.0713 12.3568 8.40731 12.6673 8.8213C12.733 8.90885 12.8152 8.9826 12.9094 9.03836C13.0036 9.09412 13.1078 9.13078 13.2161 9.14626C13.3245 9.16173 13.4348 9.15572 13.5408 9.12856C13.6468 9.1014 13.7464 9.05363 13.834 8.98797C13.9215 8.9223 13.9953 8.84004 14.051 8.74588C14.1068 8.65171 14.1435 8.54748 14.1589 8.43915C14.1744 8.33081 14.1684 8.22049 14.1412 8.11448C14.1141 8.00847 14.0663 7.90885 14.0006 7.8213C13.5449 7.21288 12.9563 6.71641 12.2798 6.36963C12.69 5.85977 12.9148 5.22567 12.9173 4.5713C12.9173 3.79775 12.61 3.05589 12.063 2.5089C11.5161 1.96192 10.7742 1.65463 10.0007 1.65463C9.2271 1.65463 8.48524 1.96192 7.93826 2.5089C7.39127 3.05589 7.08398 3.79775 7.08398 4.5713C7.0867 5.22539 7.31147 5.85916 7.72148 6.3688C7.04479 6.71567 6.45622 7.21246 6.00065 7.8213ZM10.0007 3.3213C10.2479 3.3213 10.4896 3.39461 10.6951 3.53196C10.9007 3.66931 11.0609 3.86454 11.1555 4.09294C11.2501 4.32135 11.2749 4.57269 11.2266 4.81516C11.1784 5.05764 11.0593 5.28037 10.8845 5.45518C10.7097 5.63 10.487 5.74905 10.2445 5.79728C10.002 5.84551 9.7507 5.82076 9.5223 5.72615C9.29389 5.63154 9.09866 5.47132 8.96131 5.26576C8.82396 5.0602 8.75065 4.81853 8.75065 4.5713C8.75065 4.23978 8.88235 3.92184 9.11677 3.68742C9.35119 3.45299 9.66913 3.3213 10.0007 3.3213Z" fill="#494747"/>
</g>
</svg>
