<svg width="15" height="15" viewBox="0 0 15 15" fill="none" xmlns="http://www.w3.org/2000/svg">
<g id="Arrow / Arrow_Reload_02">
<path id="Vector" d="M8.66667 9.83333H11.5833V12.75M6.33333 5.16667H3.41667V2.25M11.8269 5.75199C11.4998 4.94247 10.9522 4.24094 10.2463 3.72713C9.54044 3.21333 8.70468 2.90772 7.83382 2.8453C6.96296 2.78287 6.09187 2.96598 5.31991 3.37386C4.54794 3.78173 3.90598 4.39815 3.4668 5.15274M3.17285 9.24829C3.49992 10.0578 4.04752 10.7593 4.75342 11.2731C5.45932 11.787 6.29593 12.0922 7.16679 12.1546C8.03764 12.217 8.90802 12.0339 9.67999 11.6261C10.452 11.2182 11.0935 10.6019 11.5327 9.84729" stroke="#65717C" stroke-width="1.3" stroke-linecap="round" stroke-linejoin="round"/>
</g>
</svg>
