<svg width="15" height="14" viewBox="0 0 15 14" fill="none" xmlns="http://www.w3.org/2000/svg">
<g id="Arrow / Arrow_Reload_02">
<path id="Vector" d="M8.66569 9.33333H11.5824V12.25M6.33236 4.66667H3.41569V1.75M11.8259 5.25199C11.4989 4.44247 10.9513 3.74094 10.2454 3.22713C9.53946 2.71333 8.7037 2.40772 7.83284 2.3453C6.96199 2.28287 6.09089 2.46598 5.31893 2.87386C4.54696 3.28173 3.905 3.89815 3.46582 4.65274M3.17188 8.74829C3.49894 9.55781 4.04654 10.2593 4.75244 10.7731C5.45834 11.287 6.29495 11.5922 7.16581 11.6546C8.03667 11.717 8.90705 11.5339 9.67901 11.1261C10.451 10.7182 11.0925 10.1019 11.5317 9.34729" stroke="white" stroke-width="1.3" stroke-linecap="round" stroke-linejoin="round"/>
</g>
</svg>
