<svg width="20" height="20" viewBox="0 0 20 20" fill="none" xmlns="http://www.w3.org/2000/svg">
<g id="User / Users">
<path id="Vector" d="M17.5 16.6669C17.5 15.2156 16.1087 13.9809 14.1667 13.5233M12.5 16.667C12.5 14.826 10.2614 13.3337 7.5 13.3337C4.73858 13.3337 2.5 14.826 2.5 16.667M12.5 10.8337C14.3409 10.8337 15.8333 9.34127 15.8333 7.50033C15.8333 5.65938 14.3409 4.16699 12.5 4.16699M7.5 10.8337C5.65905 10.8337 4.16667 9.34127 4.16667 7.50033C4.16667 5.65938 5.65905 4.16699 7.5 4.16699C9.34095 4.16699 10.8333 5.65938 10.8333 7.50033C10.8333 9.34127 9.34095 10.8337 7.5 10.8337Z" stroke="#65717C" stroke-width="1.5" stroke-linecap="round" stroke-linejoin="round"/>
</g>
</svg>
