<svg width="20" height="20" viewBox="0 0 20 20" fill="none" xmlns="http://www.w3.org/2000/svg">
<path d="M18.0667 14.133L15.4584 8.04137C14.575 5.9747 12.95 5.89137 11.8584 7.85803L10.2834 10.6997C9.48335 12.1414 7.99169 12.2664 6.95835 10.9747L6.77502 10.7414C5.70002 9.39137 4.18335 9.55803 3.40835 11.0997L1.97502 13.9747C0.966686 15.9747 2.42502 18.333 4.65835 18.333H15.2917C17.4584 18.333 18.9167 16.1247 18.0667 14.133Z" stroke="#C1C1C1" stroke-width="1.5" stroke-linecap="round" stroke-linejoin="round"/>
<path d="M5.80835 6.66699C7.18906 6.66699 8.30835 5.5477 8.30835 4.16699C8.30835 2.78628 7.18906 1.66699 5.80835 1.66699C4.42764 1.66699 3.30835 2.78628 3.30835 4.16699C3.30835 5.5477 4.42764 6.66699 5.80835 6.66699Z" stroke="#C1C1C1" stroke-width="1.5" stroke-linecap="round" stroke-linejoin="round"/>
</svg>
