<svg width="83" height="46" viewBox="0 0 83 46" fill="none" xmlns="http://www.w3.org/2000/svg">
<circle cx="22.8575" cy="22.881" r="22.381" fill="#E1E1E1" fill-opacity="0.8"/>
<path d="M22.5 22.5C23.4889 22.5 24.4556 22.2068 25.2779 21.6573C26.1001 21.1079 26.741 20.3271 27.1194 19.4134C27.4978 18.4998 27.5969 17.4945 27.4039 16.5246C27.211 15.5546 26.7348 14.6637 26.0355 13.9645C25.3363 13.2652 24.4454 12.789 23.4755 12.5961C22.5055 12.4031 21.5002 12.5022 20.5866 12.8806C19.673 13.259 18.8921 13.8999 18.3427 14.7222C17.7932 15.5444 17.5 16.5111 17.5 17.5C17.5016 18.8256 18.0289 20.0964 18.9662 21.0338C19.9036 21.9711 21.1744 22.4984 22.5 22.5ZM22.5 14.5C23.0933 14.5 23.6734 14.6759 24.1667 15.0056C24.6601 15.3352 25.0446 15.8038 25.2716 16.352C25.4987 16.9001 25.5581 17.5033 25.4424 18.0853C25.3266 18.6672 25.0409 19.2018 24.6213 19.6213C24.2018 20.0409 23.6672 20.3266 23.0853 20.4424C22.5033 20.5581 21.9001 20.4987 21.3519 20.2716C20.8038 20.0446 20.3352 19.6601 20.0056 19.1667C19.6759 18.6734 19.5 18.0933 19.5 17.5C19.5 16.7044 19.8161 15.9413 20.3787 15.3787C20.9413 14.8161 21.7044 14.5 22.5 14.5ZM14.5 34.5H30.5C30.7652 34.5 31.0196 34.3946 31.2071 34.2071C31.3946 34.0196 31.5 33.7652 31.5 33.5C31.5 31.1131 30.5518 28.8239 28.864 27.136C27.1761 25.4482 24.8869 24.5 22.5 24.5C20.1131 24.5 17.8239 25.4482 16.136 27.136C14.4482 28.8239 13.5 31.1131 13.5 33.5C13.5 33.7652 13.6054 34.0196 13.7929 34.2071C13.9804 34.3946 14.2348 34.5 14.5 34.5ZM22.5 26.5C24.1828 26.5021 25.8086 27.1094 27.0808 28.2109C28.3529 29.3125 29.1863 30.8348 29.429 32.5H15.571C15.8137 30.8348 16.6471 29.3125 17.9192 28.2109C19.1914 27.1094 20.8172 26.5021 22.5 26.5Z" fill="black"/>
<path fill-rule="evenodd" clip-rule="evenodd" d="M65 20.5L70.5 26.7857L76 20.5H65Z" fill="black"/>
</svg>
