<svg width="18" height="18" viewBox="0 0 20 20" fill="none" xmlns="http://www.w3.org/2000/svg">
<path d="M4.99984 3.33366C6.3915 2.29199 8.12484 1.66699 9.99984 1.66699C14.5998 1.66699 18.3332 5.40033 18.3332 10.0003C18.3332 14.6003 14.5998 18.3337 9.99984 18.3337C5.39984 18.3337 1.6665 14.6003 1.6665 10.0003C1.6665 8.49199 2.06649 7.07532 2.77483 5.85032L9.99984 10.0003"  stroke-width="1.5" stroke-miterlimit="10" stroke-linecap="round" stroke-linejoin="round"/>
<path d="M5.69166 7.46666C5.24999 8.20833 5 9.075 5 10C5 12.7583 7.24167 15 10 15C12.7583 15 15 12.7583 15 10C15 7.24167 12.7583 5 10 5C9.24167 5 8.51668 5.16667 7.87501 5.47501"  stroke-width="1.5" stroke-miterlimit="10" stroke-linecap="round" stroke-linejoin="round"/>
</svg>
