<svg width="32" height="32" viewBox="0 0 32 32" fill="none" xmlns="http://www.w3.org/2000/svg">
<path d="M16 2.66663V12L18.6667 9.33329" stroke="#5444F2" stroke-width="1.5" stroke-linecap="round" stroke-linejoin="round"/>
<path d="M16.0002 12L13.3335 9.33337" stroke="#5444F2" stroke-width="1.5" stroke-linecap="round" stroke-linejoin="round"/>
<path d="M2.64014 17.3334H8.52014C9.0268 17.3334 9.48014 17.6134 9.7068 18.0667L11.2668 21.1867C11.7201 22.0934 12.6401 22.6667 13.6535 22.6667H18.3601C19.3735 22.6667 20.2935 22.0934 20.7468 21.1867L22.3068 18.0667C22.5335 17.6134 23.0001 17.3334 23.4935 17.3334H29.3068" stroke="#5444F2" stroke-width="1.5" stroke-linecap="round" stroke-linejoin="round"/>
<path d="M9.33317 5.50671C4.61317 6.20005 2.6665 8.97338 2.6665 14.6667V20C2.6665 26.6667 5.33317 29.3334 11.9998 29.3334H19.9998C26.6665 29.3334 29.3332 26.6667 29.3332 20V14.6667C29.3332 8.97338 27.3865 6.20005 22.6665 5.50671" stroke="#5444F2" stroke-width="1.5" stroke-linecap="round" stroke-linejoin="round"/>
</svg>
