<svg width="24" height="19" viewBox="0 0 24 19" fill="none" xmlns="http://www.w3.org/2000/svg">
<path d="M1.68079 4.87648V13.9318C1.68079 15.2664 1.68079 15.9333 1.94052 16.4431C2.16898 16.8915 2.53326 17.2564 2.98165 17.4849C3.4909 17.7443 4.15789 17.7443 5.48987 17.7443H19.3185C20.6505 17.7443 21.3165 17.7443 21.8258 17.4849C22.2742 17.2564 22.6397 16.8915 22.8681 16.4431C23.1276 15.9338 23.1276 15.2678 23.1276 13.9358V4.87256C23.1276 3.54058 23.1276 2.87359 22.8681 2.36434C22.6397 1.91595 22.2742 1.55167 21.8258 1.32321C21.316 1.06348 20.6497 1.06348 19.3151 1.06348H5.49378C4.15919 1.06348 3.4914 1.06348 2.98165 1.32321C2.53326 1.55167 2.16898 1.91595 1.94052 2.36434C1.68079 2.87409 1.68079 3.54188 1.68079 4.87648Z" fill="#F7F7FF"/>
<path d="M3.46802 2.85071L10.1495 7.75043L10.1519 7.75244C10.9599 8.34501 11.3642 8.64146 11.807 8.75599C12.1983 8.85721 12.6097 8.85721 13.0011 8.75599C13.4443 8.64136 13.8497 8.34404 14.6592 7.75043L21.3406 2.85071M1.68079 13.9318V4.87648C1.68079 3.54188 1.68079 2.87409 1.94052 2.36434C2.16898 1.91595 2.53326 1.55167 2.98165 1.32321C3.4914 1.06348 4.15919 1.06348 5.49378 1.06348H19.3151C20.6497 1.06348 21.316 1.06348 21.8258 1.32321C22.2742 1.55167 22.6397 1.91595 22.8681 2.36434C23.1276 2.87359 23.1276 3.54058 23.1276 4.87256V13.9358C23.1276 15.2678 23.1276 15.9338 22.8681 16.4431C22.6397 16.8915 22.2742 17.2564 21.8258 17.4849C21.3165 17.7443 20.6505 17.7443 19.3185 17.7443H5.48987C4.15789 17.7443 3.4909 17.7443 2.98165 17.4849C2.53326 17.2564 2.16898 16.8915 1.94052 16.4431C1.68079 15.9333 1.68079 15.2664 1.68079 13.9318Z" stroke="#5444F2" stroke-width="1.5" stroke-linecap="round" stroke-linejoin="round"/>
</svg>
