<?xml version="1.0" encoding="UTF-8"?>
<svg width="577px" height="181px" viewBox="0 0 577 181" version="1.1" xmlns="http://www.w3.org/2000/svg" xmlns:xlink="http://www.w3.org/1999/xlink">
    <title>Bani 3</title>
    <defs>
        <linearGradient x1="20.5378171%" y1="0%" x2="79.4621829%" y2="100%" id="logo-linearGradient-1">
            <stop stop-color="#00B0FF" offset="0%"></stop>
            <stop stop-color="#3D5AFE" offset="52.4898929%"></stop>
            <stop stop-color="#5444F2" offset="100%"></stop>
        </linearGradient>
    </defs>
    <g id="logo-Page-1" stroke="none" stroke-width="1" fill="none" fill-rule="evenodd">
        <g id="logo-Bani-3">
            <path d="M89.9488659,79.4987581 C102.28621,87.3986585 109.761116,102.235971 106.861153,118.523266 C104.211186,133.373079 92.2488369,145.597925 77.4740232,148.697886 C53.0993305,153.822821 31.4621033,134.785561 31.4621033,111.235858 L31.4621033,53.3740875 L31.4621033,31.4621033 C31.4621033,14.0873224 17.3747809,-2.84217094e-14 9.9475983e-14,-2.84217094e-14 L9.9475983e-14,111.535854 L0.0124998424,111.535854 C0.0249996848,154.647811 39.0120081,188.459884 83.8489428,179.572496 C110.161111,174.360062 131.560841,153.297828 137.24827,127.085658 C147.048146,81.9362274 112.923576,42.0617301 69.474124,42.0617301 C69.474124,57.2115391 77.1865268,71.3238612 89.9488659,79.4987581 Z" id="Fill-1" fill="url(#logo-linearGradient-1)"></path>
            <path d="M366.711509,52.0507955 C375.3989,52.0507955 382.973804,53.750774 389.448723,57.1507312 C395.923641,60.5631881 401.098576,64.8006347 404.973527,69.8755707 L404.973527,69.8755707 L404.973527,53.8507728 L415.498394,53.8507728 C422.398307,53.8507728 427.998237,59.4507022 427.998237,66.3506152 L427.998237,66.3506152 L427.998237,164.199381 L404.973527,164.199381 L404.973527,147.774589 C401.098576,152.987023 395.823642,157.324468 389.148726,160.786924 C382.473811,164.261881 374.861407,165.999359 366.311514,165.999359 C356.836634,165.999359 348.161743,163.561889 340.286843,158.686951 C332.399442,153.812012 326.162021,147.012098 321.562079,138.262208 C316.949637,129.524819 314.649666,119.599944 314.649666,108.525083 C314.649666,97.4377232 316.949637,87.6253469 321.562079,79.0879546 C326.162021,70.5380624 332.436941,63.900646 340.386841,59.1632058 C348.324241,54.4257655 357.099131,52.0507955 366.711509,52.0507955 Z M199.32487,16 C206.237283,16 211.824712,21.5999294 211.824712,28.4998424 L211.824712,28.4998424 L211.824712,70.2743157 C215.699663,64.936883 221.012096,60.5619381 227.749511,57.1494812 C234.486926,53.749524 241.999332,52.0495455 250.274227,52.0495455 C260.024104,52.0495455 268.836493,54.387016 276.711394,59.0619571 C284.586295,63.7368981 290.798716,70.3743144 295.336159,78.9867058 C299.873602,87.5990972 302.148573,97.4364732 302.148573,108.523833 C302.148573,119.611194 299.873602,129.523569 295.336159,138.260958 C290.798716,147.010848 284.561295,153.810762 276.611395,158.685701 C268.673995,163.560639 259.886606,165.998109 250.274227,165.998109 C241.736835,165.998109 234.161931,164.32313 227.549514,160.985672 C220.937097,157.660714 215.699663,153.385768 211.824712,148.173334 L211.824712,148.173334 L211.824712,164.198131 L189,164.198131 L189,16 Z M576.755111,53.8495228 L576.755111,164.198131 L553.930399,164.198131 L553.930399,53.8495228 L576.755111,53.8495228 Z M496.177377,52.0545454 C504.852268,52.0545454 512.62717,53.8545227 519.502083,57.4544773 C526.376996,61.0544319 531.751928,66.4043645 535.62688,73.4792753 C539.489331,80.5541861 541.426806,89.0915784 541.426806,99.116452 L541.426806,99.116452 L541.426806,164.190632 L531.301934,164.190632 C524.402021,164.190632 518.802092,158.603202 518.802092,151.690789 L518.802092,151.690789 L518.802092,102.516409 C518.802092,92.6415337 516.327123,85.0541293 511.389685,79.7791958 C506.452247,74.5167622 499.702333,71.8792955 491.16494,71.8792955 C482.615048,71.8792955 475.840133,74.5167622 470.840196,79.7791958 C465.82776,85.0541293 463.327791,92.6415337 463.327791,102.516409 L463.327791,102.516409 L463.327791,164.190632 L440.503079,164.190632 L440.503079,53.8545227 L463.327791,53.8545227 L463.327791,66.4668637 C467.065244,61.9294209 471.840184,58.3919655 477.652611,55.8544975 C483.452537,53.3170295 489.62746,52.0545454 496.177377,52.0545454 Z M371.523949,71.8755455 C365.649023,71.8755455 360.174092,73.3130274 355.099156,76.1754913 C350.02422,79.050455 345.924271,83.2629019 342.786811,88.8003321 C339.649351,94.3377623 338.07437,100.912679 338.07437,108.525083 C338.07437,116.137487 339.649351,122.812403 342.786811,128.549831 C345.924271,134.287259 350.061719,138.662203 355.199154,141.662166 C360.33659,144.674628 365.786521,146.174609 371.523949,146.174609 C377.398875,146.174609 382.873806,144.699627 387.948742,141.762164 C393.023678,138.837201 397.123626,134.524756 400.261086,128.849827 C403.398547,123.174899 404.973527,116.537482 404.973527,108.925078 C404.973527,101.312674 403.398547,94.7002577 400.261086,89.1003283 C397.123626,83.4878991 393.023678,79.212953 387.948742,76.27549 C382.873806,73.3505269 377.398875,71.8755455 371.523949,71.8755455 Z M245.27429,71.8742955 C239.536863,71.8742955 234.086932,73.3492769 228.949496,76.27424 C223.812061,79.211703 219.674613,83.4866491 216.537153,89.0990783 C213.399692,94.6990077 211.824712,101.311424 211.824712,108.923828 C211.824712,116.536232 213.399692,123.173649 216.537153,128.848577 C219.674613,134.523506 223.812061,138.835951 228.949496,141.760914 C234.086932,144.698377 239.536863,146.173359 245.27429,146.173359 C251.149216,146.173359 256.649147,144.673378 261.799082,141.660916 C266.936517,138.660953 271.073965,134.286009 274.211426,128.548581 C277.348886,122.811153 278.923866,116.136237 278.923866,108.523833 C278.923866,100.911429 277.348886,94.3365123 274.211426,88.7990821 C271.073965,83.2616519 266.936517,79.049205 261.799082,76.1742413 C256.649147,73.3117774 251.149216,71.8742955 245.27429,71.8742955 Z M564.260269,16 C571.057198,16 576.592659,21.4340148 576.756383,28.1917741 L576.760111,28.4998424 L576.760111,38.8247122 L553.935399,38.8247122 L553.935399,16 L564.260269,16 Z" id="logo-Combined-Shape" fill="#000000"></path>
        </g>
    </g>
</svg>