<svg width="102" height="34" viewBox="0 0 102 34" fill="none" xmlns="http://www.w3.org/2000/svg">
<path fill-rule="evenodd" clip-rule="evenodd" d="M15.9075 15.0555C18.0893 16.4526 19.4113 19.0765 18.8984 21.957C18.4298 24.5832 16.3142 26.7451 13.7013 27.2934C9.39063 28.1997 5.56408 24.833 5.56408 20.6682V10.4353V6.56017C5.56408 3.48744 3.07273 0.996094 0 0.996094V20.7212H0.0022106C0.0044212 28.3456 6.89928 34.3253 14.8287 32.7535C19.482 31.8317 23.2666 28.1068 24.2724 23.4712C26.0055 15.4865 19.9706 8.43472 12.2865 8.43472C12.2865 11.114 13.6505 13.6097 15.9075 15.0555Z" fill="url(#paint0_linear_3249_23164)"/>
<path fill-rule="evenodd" clip-rule="evenodd" d="M64.8531 10.2018C66.3895 10.2018 67.7291 10.5024 68.8742 11.1037C70.0193 11.7072 70.9345 12.4566 71.6198 13.3541V10.5201H73.4811C74.7013 10.5201 75.6917 11.5104 75.6917 12.7307V30.0353H71.6198V27.1305C70.9345 28.0524 70.0016 28.8194 68.8211 29.4318C67.6407 30.0463 66.2944 30.3536 64.7824 30.3536C63.1067 30.3536 61.5726 29.9225 60.1799 29.0604C58.785 28.1983 57.6819 26.9957 56.8684 25.4483C56.0527 23.9031 55.646 22.1478 55.646 20.1893C55.646 18.2285 56.0527 16.4931 56.8684 14.9833C57.6819 13.4712 58.7917 12.2974 60.1976 11.4596C61.6013 10.6218 63.1532 10.2018 64.8531 10.2018ZM35.2508 3.82617C36.4732 3.82617 37.4614 4.81652 37.4614 6.03677V13.4246C38.1466 12.4807 39.0861 11.707 40.2777 11.1035C41.4692 10.5022 42.7977 10.2015 44.2612 10.2015C45.9854 10.2015 47.5439 10.6149 48.9366 11.4417C50.3293 12.2685 51.4279 13.4423 52.2304 14.9654C53.0328 16.4885 53.4351 18.2282 53.4351 20.189C53.4351 22.1498 53.0328 23.9028 52.2304 25.4481C51.4279 26.9955 50.3248 28.198 48.9189 29.0602C47.5152 29.9223 45.9611 30.3534 44.2612 30.3534C42.7513 30.3534 41.4117 30.0572 40.2423 29.4669C39.0729 28.8789 38.1466 28.1229 37.4614 27.2011V30.035H33.4248V3.82617H35.2508ZM101.999 10.5199V30.035H97.9628V10.5199H101.999ZM87.7492 10.2024C89.2833 10.2024 90.6583 10.5208 91.8742 11.1574C93.09 11.7941 94.0405 12.7402 94.7258 13.9914C95.4089 15.2426 95.7515 16.7524 95.7515 18.5253V30.0337H93.961C92.7407 30.0337 91.7504 29.0456 91.7504 27.8231V19.1266C91.7504 17.3802 91.3127 16.0384 90.4395 15.1055C89.5663 14.1749 88.3726 13.7084 86.8627 13.7084C85.3507 13.7084 84.1525 14.1749 83.2683 15.1055C82.3818 16.0384 81.9397 17.3802 81.9397 19.1266V30.0337H77.9032V10.5208H81.9397V12.7512C82.6007 11.9488 83.4451 11.3232 84.4731 10.8744C85.4988 10.4257 86.5908 10.2024 87.7492 10.2024ZM65.7042 13.7078C64.6652 13.7078 63.697 13.962 62.7995 14.4682C61.902 14.9767 61.1769 15.7216 60.622 16.7009C60.0672 17.6802 59.7886 18.843 59.7886 20.1893C59.7886 21.5355 60.0672 22.716 60.622 23.7306C61.1769 24.7453 61.9086 25.519 62.8172 26.0496C63.7257 26.5823 64.6895 26.8476 65.7042 26.8476C66.7432 26.8476 67.7114 26.5867 68.6089 26.0672C69.5064 25.55 70.2315 24.7873 70.7864 23.7837C71.3412 22.7801 71.6198 21.6063 71.6198 20.26C71.6198 18.9137 71.3412 17.7443 70.7864 16.754C70.2315 15.7614 69.5064 15.0054 68.6089 14.4859C67.7114 13.9686 66.7432 13.7078 65.7042 13.7078ZM43.3769 13.7076C42.3623 13.7076 41.3984 13.9684 40.4899 14.4857C39.5813 15.0052 38.8496 15.7612 38.2948 16.7538C37.7399 17.7441 37.4614 18.9135 37.4614 20.2598C37.4614 21.606 37.7399 22.7799 38.2948 23.7835C38.8496 24.7871 39.5813 25.5497 40.4899 26.067C41.3984 26.5865 42.3623 26.8474 43.3769 26.8474C44.4159 26.8474 45.3886 26.5821 46.2993 26.0493C47.2079 25.5188 47.9396 24.7451 48.4945 23.7304C49.0493 22.7158 49.3279 21.5353 49.3279 20.189C49.3279 18.8428 49.0493 17.68 48.4945 16.7007C47.9396 15.7214 47.2079 14.9764 46.2993 14.468C45.3886 13.9618 44.4159 13.7076 43.3769 13.7076ZM99.7896 3.82617C100.992 3.82617 101.971 4.78718 102 5.98229L102 6.03677V7.86273H97.9637V3.82617H99.7896Z" fill="black"/>
<defs>
<linearGradient id="paint0_linear_3249_23164" x1="5.04645" y1="0.996094" x2="25.8758" y2="28.131" gradientUnits="userSpaceOnUse">
<stop stop-color="#00B0FF"/>
<stop offset="0.524899" stop-color="#3D5AFE"/>
<stop offset="1" stop-color="#5444F2"/>
</linearGradient>
</defs>
</svg>
