<svg width="56" height="21" viewBox="0 0 56 21" fill="none" xmlns="http://www.w3.org/2000/svg">
<path d="M46.7522 13.5087L45.1405 20.0486L43.0708 20.8841C41.9197 21.3486 40.7141 20.3434 41.0073 19.1636L42.666 12.4769C42.8328 11.8057 42.5371 11.1056 41.934 10.7431L36.3068 7.36075C35.2493 6.72523 35.3751 5.18901 36.5238 4.72567L38.9288 3.75488L44.3421 7.12998" fill="#6B61E5"/>
<path d="M44.3416 7.12943L45.8168 0.974267L47.9424 0.115843C49.0891 -0.346896 50.2916 0.648658 50.0084 1.82605L48.5015 8.09236C48.3403 8.76351 48.6391 9.45943 49.2428 9.81887L55.2704 13.4054C56.3335 14.0379 56.2107 15.5796 55.0597 16.0441L52.6695 17.0089L46.7522 13.5081" fill="#6B61E5"/>
<path d="M0 5.67053H3.54254L7.28529 16.9176L11.1173 5.67053H14.5706L9.29056 20.869H5.30234L0 5.67053Z" fill="#6B61E5"/>
<path d="M13.9247 15.3109C13.9247 11.8367 16.2641 9.57861 19.8066 9.57861C23.3491 9.57861 25.5546 11.6628 25.5992 14.9418C25.5992 15.2674 25.5769 15.6365 25.51 15.9839H17.2001V16.1361C17.267 17.7213 18.314 18.6763 19.8959 18.6763C21.166 18.6763 22.0567 18.1333 22.3245 17.0912H25.4213C25.0649 19.2623 23.082 20.9997 20.0297 20.9997C16.22 20.9997 13.9253 18.7633 13.9253 15.3109H13.9247ZM22.4354 13.9867C22.2129 12.619 21.2546 11.8591 19.8289 11.8591C18.4032 11.8591 17.4449 12.6625 17.267 13.9867H22.4361H22.4354Z" fill="#6B61E5"/>
<path d="M38.4758 14.6814V20.8692H35.3343V14.9853C35.3343 13.0963 34.5991 12.0977 33.0172 12.0977C31.4353 12.0977 30.4553 13.2268 30.4553 15.1593V20.8698H27.3138V9.7091H30.0543L30.3437 11.0985C31.0789 10.2298 32.1259 9.57861 33.8863 9.57861C36.3595 9.57861 38.4758 10.8599 38.4758 14.6808V14.6814Z" fill="#6B61E5"/>
</svg>
