<svg width="20" height="20" viewBox="0 0 20 20" fill="none" xmlns="http://www.w3.org/2000/svg">
<path d="M6.04199 5.83268H13.9587V4.16602C13.9587 2.49935 13.3337 1.66602 11.4587 1.66602H8.54199C6.66699 1.66602 6.04199 2.49935 6.04199 4.16602V5.83268Z" stroke="black" stroke-width="1.5" stroke-miterlimit="10" stroke-linecap="round" stroke-linejoin="round"/>
<path d="M13.3337 12.5V15.8333C13.3337 17.5 12.5003 18.3333 10.8337 18.3333H9.16699C7.50033 18.3333 6.66699 17.5 6.66699 15.8333V12.5H13.3337Z" stroke="black" stroke-width="1.5" stroke-miterlimit="10" stroke-linecap="round" stroke-linejoin="round"/>
<path d="M17.5 8.33398V12.5007C17.5 14.1673 16.6667 15.0007 15 15.0007H13.3333V12.5007H6.66667V15.0007H5C3.33333 15.0007 2.5 14.1673 2.5 12.5007V8.33398C2.5 6.66732 3.33333 5.83398 5 5.83398H15C16.6667 5.83398 17.5 6.66732 17.5 8.33398Z" stroke="black" stroke-width="1.5" stroke-miterlimit="10" stroke-linecap="round" stroke-linejoin="round"/>
<path d="M14.1663 12.5H13.158H5.83301" stroke="#292D32" stroke-width="1.5" stroke-miterlimit="10" stroke-linecap="round" stroke-linejoin="round"/>
<path d="M5.83301 9.16602H8.33301" stroke="#292D32" stroke-width="1.5" stroke-miterlimit="10" stroke-linecap="round" stroke-linejoin="round"/>
</svg>
