<svg width="76" height="71" viewBox="0 0 76 71" fill="none" xmlns="http://www.w3.org/2000/svg">
<rect x="0.75" y="0.75" width="74.5" height="69.5" rx="8.25" stroke="#E1E1E1" stroke-width="0.5"/>
<path d="M47.68 40.96L44.55 33.65C43.49 31.17 41.54 31.07 40.23 33.43L38.34 36.84C37.38 38.57 35.59 38.72 34.35 37.17L34.13 36.89C32.84 35.27 31.02 35.47 30.09 37.32L28.37 40.77C27.16 43.17 28.91 46 31.59 46H44.35C46.95 46 48.7 43.35 47.68 40.96Z" stroke="#65717C" stroke-width="1.5" stroke-linecap="round" stroke-linejoin="round"/>
<path d="M32.97 32C34.6269 32 35.97 30.6569 35.97 29C35.97 27.3431 34.6269 26 32.97 26C31.3131 26 29.97 27.3431 29.97 29C29.97 30.6569 31.3131 32 32.97 32Z" stroke="#65717C" stroke-width="1.5" stroke-linecap="round" stroke-linejoin="round"/>
</svg>
