<svg width="13" height="14" viewBox="0 0 13 14" fill="none" xmlns="http://www.w3.org/2000/svg">
<path d="M6.5 3.75009L0.5 9.75009V12.7501L3.5 12.7501L9.49999 6.75008M6.5 3.75009L8.65147 1.5986L8.65277 1.59732C8.94893 1.30116 9.09727 1.15282 9.26827 1.09725C9.41891 1.04831 9.58118 1.04831 9.73181 1.09725C9.90269 1.15278 10.0509 1.30095 10.3466 1.59669L11.6515 2.90154C11.9485 3.19855 12.097 3.34713 12.1527 3.51837C12.2016 3.66901 12.2016 3.83127 12.1527 3.9819C12.0971 4.15302 11.9487 4.30137 11.6521 4.59796L11.6515 4.5986L9.49999 6.75008M6.5 3.75009L9.49999 6.75008" stroke="#5444F2" stroke-linecap="round" stroke-linejoin="round"/>
</svg>
