<svg width="20" height="20" viewBox="0 0 20 20" fill="none" xmlns="http://www.w3.org/2000/svg">
<path d="M18.0583 11.9165L17.725 16.0832C17.6 17.3582 17.5 18.3332 15.2416 18.3332H4.7583C2.49997 18.3332 2.39997 17.3582 2.27497 16.0832L1.94163 11.9165C1.87497 11.2248 2.09163 10.5832 2.4833 10.0915C2.49163 10.0832 2.49163 10.0832 2.49997 10.0748C2.9583 9.5165 3.64997 9.1665 4.42497 9.1665H15.575C16.35 9.1665 17.0333 9.5165 17.4833 10.0582C17.4916 10.0665 17.5 10.0748 17.5 10.0832C17.9083 10.5748 18.1333 11.2165 18.0583 11.9165Z"  stroke-width="1.5" stroke-miterlimit="10"/>
<path d="M2.91699 9.52523V5.23356C2.91699 2.40023 3.62533 1.69189 6.45866 1.69189H7.51699C8.57533 1.69189 8.81699 2.00856 9.21699 2.54189L10.2753 3.95856C10.542 4.30856 10.7003 4.52523 11.4087 4.52523H13.5337C16.367 4.52523 17.0753 5.23356 17.0753 8.06689V9.55856" stroke-width="1.5" stroke-miterlimit="10" stroke-linecap="round" stroke-linejoin="round"/>
<path d="M7.8584 14.1665H12.1417" stroke-width="1.5" stroke-miterlimit="10" stroke-linecap="round" stroke-linejoin="round"/>
</svg>
