<svg width="46" height="52" viewBox="0 0 46 52" fill="none" xmlns="http://www.w3.org/2000/svg">
<path d="M5.40337 47.43C5.56225 49.9764 7.68113 52 10.268 52H35.2295C37.8163 52 39.9352 49.9764 40.0941 47.43L42.2477 13.0022H3.24982L5.40337 47.43ZM43.8726 3.25271H31.6865L30.7317 1.35337C30.3331 0.551747 29.504 0 28.5479 0C28.5479 0 28.5493 0.0028899 28.5479 0.0028899H16.9395H16.9308C15.979 0.0028899 15.1572 0.553193 14.7657 1.35337L13.811 3.25271H1.62491C0.72796 3.25271 0 3.98067 0 4.87762V8.12744C0 9.02439 0.72796 9.75235 1.62491 9.75235H43.8726C44.7695 9.75235 45.4975 9.02439 45.4975 8.12744V4.87762C45.4975 3.98067 44.7695 3.25271 43.8726 3.25271Z" fill="#FB3C3E"/>
</svg>
