<svg width="20" height="19" viewBox="0 0 20 19" fill="none" xmlns="http://www.w3.org/2000/svg">
<path d="M11.3125 7.9375V13.4062M8.1875 7.9375V13.4062M5.0625 4.8125V14.0313C5.0625 14.9063 5.0625 15.3436 5.2328 15.6778C5.3826 15.9718 5.62146 16.2113 5.91547 16.3611C6.24938 16.5312 6.68671 16.5312 7.56009 16.5312H11.9399C12.8133 16.5312 13.25 16.5312 13.5839 16.3611C13.8779 16.2113 14.1176 15.9718 14.2674 15.6778C14.4375 15.3439 14.4375 14.907 14.4375 14.0337V4.8125M5.0625 4.8125H6.625M5.0625 4.8125H3.5M6.625 4.8125H12.875M6.625 4.8125C6.625 4.08447 6.625 3.72063 6.74394 3.43349C6.90252 3.05063 7.2065 2.74627 7.58936 2.58769C7.8765 2.46875 8.24072 2.46875 8.96875 2.46875H10.5312C11.2593 2.46875 11.6233 2.46875 11.9104 2.58769C12.2933 2.74627 12.5974 3.05063 12.756 3.43349C12.8749 3.72063 12.875 4.08447 12.875 4.8125M12.875 4.8125H14.4375M14.4375 4.8125H16" stroke="#FF2E00" stroke-width="1.3" stroke-linecap="round" stroke-linejoin="round"/>
</svg>
