<svg width="16" height="16" viewBox="0 0 16 16" fill="none" xmlns="http://www.w3.org/2000/svg">
<path d="M13.2663 9H2.73301C1.73301 9 1.33301 9.42667 1.33301 10.4867V13.18C1.33301 14.24 1.73301 14.6667 2.73301 14.6667H13.2663C14.2663 14.6667 14.6663 14.24 14.6663 13.18V10.4867C14.6663 9.42667 14.2663 9 13.2663 9Z" fill="white" stroke="#65717C" stroke-width="1.5" stroke-linecap="round" stroke-linejoin="round"/>
<path d="M13.2663 1.3335H2.73301C1.73301 1.3335 1.33301 1.76016 1.33301 2.82016V5.5135C1.33301 6.5735 1.73301 7.00016 2.73301 7.00016H13.2663C14.2663 7.00016 14.6663 6.5735 14.6663 5.5135V2.82016C14.6663 1.76016 14.2663 1.3335 13.2663 1.3335Z" fill="white" stroke="#65717C" stroke-width="1.5" stroke-linecap="round" stroke-linejoin="round"/>
</svg>
